;TYPE=PLATED
;Layer: PTH_Through
;EasyEDA Pro v2.2.47.7, 2026-05-29 18:17:45
;Gerber Generator version 0.3
M48
METRIC,LZ,0000.00000
;Hole size 1 = 0.30500 METRIC
T01C0.30500
;Hole size 2 = 0.90000 METRIC
T02C0.90000
;Hole size 3 = 0.91440 METRIC
T03C0.91440
;Hole size 4 = 1.00000 METRIC
T04C1.00000
;Hole size 5 = 1.00000 METRIC
T05C1.00000
;Hole size 6 = 1.02000 METRIC
T06C1.02000
;Hole size 7 = 1.04999 METRIC
T07C1.04999
%
G05
G90
T01
X49.957Y-66.544
X49.721Y-22.987
X54.97561Y-24.12439
X81.407Y-19.177
T02
X61.976Y-75.311
X64.476Y-75.311
X59.476Y-75.311
T03
X97.028Y-79.629
X38.481Y-79.756
X38.735Y4.953
T04
X55.626Y-56.007
X55.626Y-53.467
X55.626Y-50.927
X55.626Y-48.387
X55.626Y-45.847
X55.626Y-43.307
X55.626Y-40.767
X55.626Y-38.227
X55.626Y-35.687
X55.626Y-33.147
X55.626Y-30.607
X55.626Y-28.067
X55.626Y-25.527
X55.626Y-22.987
X55.626Y-20.447
X81.28Y-56.134
X81.28Y-53.594
X81.28Y-51.054
X81.28Y-48.514
X81.28Y-45.974
X81.28Y-43.434
X81.28Y-40.894
X81.28Y-38.354
X81.28Y-35.814
X81.28Y-33.274
X81.28Y-30.734
X81.28Y-28.194
X81.28Y-25.654
X81.28Y-23.114
X81.28Y-20.574
T05
X47.752Y-72.844
X42.952Y-69.944
X47.752Y-66.544
T06
X59.055Y-6.961
X59.055Y-9.501
X56.515Y-6.961
X56.515Y-9.501
X55.88Y-20.68
X55.88Y-23.22
X55.88Y-25.76
X55.88Y-28.3
X55.88Y-30.84
X55.88Y-33.38
X55.88Y-35.92
X55.88Y-38.46
X55.88Y-41.0
X55.88Y-43.54
X55.88Y-46.08
X55.88Y-48.62
X55.88Y-51.16
X55.88Y-53.7
X55.88Y-56.24
X81.28Y-20.68
X81.28Y-23.22
X81.28Y-25.76
X81.28Y-28.3
X81.28Y-30.84
X81.28Y-33.38
X81.28Y-35.92
X81.28Y-38.46
X81.28Y-41.0
X81.28Y-43.54
X81.28Y-46.08
X81.28Y-48.62
X81.28Y-51.16
X81.28Y-53.7
X81.28Y-56.24
T07
X86.868Y-19.812
X86.868Y-22.352
X86.868Y-24.892
X86.868Y-27.432
X86.868Y-29.972
X86.868Y-32.512
X86.868Y-35.052
X86.868Y-37.592
X86.868Y-40.132
X86.868Y-42.672
X86.868Y-45.212
X86.868Y-47.752
X86.868Y-50.292
X86.868Y-52.832
X86.868Y-55.372
X84.201Y-55.372
X84.201Y-52.832
X84.201Y-50.292
X84.201Y-47.752
X84.201Y-45.212
X84.201Y-42.672
X84.201Y-40.132
X84.201Y-37.592
X84.201Y-35.052
X84.201Y-32.512
X84.201Y-29.972
X84.201Y-27.432
X84.201Y-24.892
X84.201Y-22.352
X84.201Y-19.812
X47.244Y-56.007
X47.244Y-53.467
X47.244Y-50.927
X47.244Y-48.387
X47.244Y-45.847
X47.244Y-43.307
X47.244Y-40.767
X47.244Y-38.227
X47.244Y-35.687
X47.244Y-33.147
X47.244Y-30.607
X47.244Y-28.067
X47.244Y-25.527
X47.244Y-22.987
X47.244Y-20.447
X50.8Y-20.447
X50.8Y-22.987
X50.8Y-25.527
X50.8Y-28.067
X50.8Y-30.607
X50.8Y-33.147
X50.8Y-35.687
X50.8Y-38.227
X50.8Y-40.767
X50.8Y-43.307
X50.8Y-45.847
X50.8Y-48.387
X50.8Y-50.927
X50.8Y-53.467
X50.8Y-56.007
M30