G04 Layer: TopSilkscreenLayer*
G04 EasyEDA Pro v2.2.47.7, 2026-05-29 18:17:45*
G04 Gerber Generator version 0.3*
G04 Scale: 100 percent, Rotated: No, Reflected: No*
G04 Dimensions in millimeters*
G04 Leading zeros omitted, absolute positions, 4 integers and 5 decimals*
G04 Generated by one-click*
G04 Object Configs: Pad,Via,Track,Text,Image,Dimension,BoardOutline,BoardCutout,CopperFilled,SolidRegion,FPCStiffener,Line,PlaneZone,ComponentProperty,ComponentSilkscreen,TearDrop*
G04 Layer Configs: 1,2,3,4,5,6,7,8,9,10,11,13,14,71,72,73,74,56*
G04 Copper Areas: 0*
%FSLAX45Y45*%
%MOMM*%
%ADD10C,0.1524*%
%ADD11C,0.254*%
%ADD12C,0.127*%
%ADD13C,0.1*%
%ADD14C,0.2*%
%ADD15C,0.0811*%
%ADD16C,0.0762*%
G75*


G04 Image Start*
G36*
G01X9715500Y-1200783D02*
G01X9711613Y-1209992D01*
G01X9707727Y-1219200D01*
G01X9659023Y-1217873D01*
G01X9610318Y-1216547D01*
G01X9573448Y-1200599D01*
G01X9559827Y-1190709D01*
G01X9546205Y-1180818D01*
G01X9522303Y-1150456D01*
G01X9498400Y-1120094D01*
G01X9481081Y-1087440D01*
G01X9463762Y-1054786D01*
G01X9426614Y-947525D01*
G01X9409473Y-895613D01*
G01X9392332Y-843700D01*
G01X9384185Y-826979D01*
G01X9376038Y-810257D01*
G01X9376038Y-796500D01*
G01X9345059Y-704275D01*
G01X9314081Y-612049D01*
G01X9301707Y-573550D01*
G01X9297624Y-557509D01*
G01X9293541Y-541467D01*
G01X9270664Y-497782D01*
G01X9247786Y-454096D01*
G01X9227454Y-425565D01*
G01X9207122Y-397035D01*
G01X9192875Y-384845D01*
G01X9178628Y-372653D01*
G01X9117979Y-356699D01*
G01X9055290Y-364797D01*
G01X9053986Y-367361D01*
G01X9052682Y-369926D01*
G01X9052916Y-708296D01*
G01X9056072Y-756925D01*
G01X9059228Y-805555D01*
G01X9064601Y-836675D01*
G01X9069974Y-867795D01*
G01X9084746Y-913812D01*
G01X9089268Y-921126D01*
G01X9093791Y-928441D01*
G01X9111092Y-939526D01*
G01X9128393Y-950610D01*
G01X9127407Y-964199D01*
G01X9126421Y-977788D01*
G01X9007706Y-979473D01*
G01X8888991Y-981158D01*
G01X8884597Y-973987D01*
G01X8880203Y-966816D01*
G01X8886822Y-942497D01*
G01X8896705Y-942497D01*
G01X8906988Y-932040D01*
G01X8917271Y-921584D01*
G01X8921742Y-912791D01*
G01X8926214Y-903998D01*
G01X8932164Y-903998D01*
G01X8940012Y-873520D01*
G01X8947861Y-843042D01*
G01X8959511Y-772461D01*
G01X8960852Y-568737D01*
G01X8962194Y-365014D01*
G01X8951312Y-364418D01*
G01X8940431Y-363821D01*
G01X8888466Y-364475D01*
G01X8836501Y-365129D01*
G01X8832753Y-372497D01*
G01X8832753Y-1176699D01*
G01X9010936Y-1178357D01*
G01X9189119Y-1180015D01*
G01X9201342Y-1169973D01*
G01X9213564Y-1159931D01*
G01X9228875Y-1131768D01*
G01X9244185Y-1103607D01*
G01X9251776Y-1073720D01*
G01X9259366Y-1043833D01*
G01X9261416Y-1011576D01*
G01X9263466Y-979318D01*
G01X9270428Y-970245D01*
G01X9277390Y-961172D01*
G01X9282664Y-971542D01*
G01X9287938Y-981913D01*
G01X9287938Y-1198239D01*
G01X9282810Y-1208323D01*
G01X9277683Y-1218406D01*
G01X8642668Y-1218406D01*
G01X8638641Y-1208862D01*
G01X8634613Y-1199320D01*
G01X8636402Y-1190153D01*
G01X8638191Y-1180986D01*
G01X8657027Y-1173297D01*
G01X8675864Y-1165606D01*
G01X8692125Y-1144073D01*
G01X8708385Y-1122540D01*
G01X8717557Y-1095686D01*
G01X8726728Y-1068832D01*
G01X8734864Y-1016287D01*
G01X8734864Y-364785D01*
G01X8671959Y-362522D01*
G01X8609055Y-360260D01*
G01X8603437Y-350616D01*
G01X8597819Y-340974D01*
G01X8584904Y-336412D01*
G01X8571990Y-331850D01*
G01X8551663Y-313726D01*
G01X8531336Y-295602D01*
G01X8515633Y-274632D01*
G01X8499930Y-253662D01*
G01X8475318Y-204727D01*
G01X8450707Y-155792D01*
G01X8438669Y-93946D01*
G01X8426630Y-32099D01*
G01X8423388Y-4459D01*
G01X8420146Y23182D01*
G01X8420141Y38987D01*
G01X8436302Y38987D01*
G01X8448984Y-53815D01*
G01X8468581Y-137229D01*
G01X8489150Y-179060D01*
G01X8509719Y-220892D01*
G01X8526420Y-244756D01*
G01X8543121Y-268620D01*
G01X8566044Y-287802D01*
G01X8588967Y-306985D01*
G01X8619497Y-313904D01*
G01X8619497Y-313904D01*
G01X8650026Y-320823D01*
G01X8692445Y-318857D01*
G01X8734864Y-316891D01*
G01X8734864Y369672D01*
G01X8720565Y422219D01*
G01X8709313Y441646D01*
G01X8698061Y461073D01*
G01X8663078Y494658D01*
G01X8648395Y497578D01*
G01X8633712Y500499D01*
G01X8609239Y492210D01*
G01X8584767Y483922D01*
G01X8558663Y463899D01*
G01X8535822Y441301D01*
G01X8517492Y413228D01*
G01X8499163Y385155D01*
G01X8488126Y358216D01*
G01X8477089Y331277D01*
G01X8469245Y308768D01*
G01X8461401Y286258D01*
G01X8445838Y217398D01*
G01X8441118Y178038D01*
G01X8436398Y138679D01*
G01X8436302Y38987D01*
G01X8420141Y38987D01*
G01X8420100Y151512D01*
G01X8429345Y237292D01*
G01X8444560Y297066D01*
G01X8459774Y356839D01*
G01X8473326Y384419D01*
G01X8486878Y412000D01*
G01X8506434Y441259D01*
G01X8525990Y470519D01*
G01X8545590Y490089D01*
G01X8565189Y509659D01*
G01X8614134Y532214D01*
G01X8829490Y530084D01*
G01X8831168Y-313461D01*
G01X8845805Y-320546D01*
G01X8902907Y-318719D01*
G01X8960009Y-316891D01*
G01X8960869Y-8900D01*
G01X8961729Y299091D01*
G01X8958643Y343049D01*
G01X8955558Y387009D01*
G01X8938568Y455295D01*
G01X8926497Y469301D01*
G01X8914425Y483307D01*
G01X8888025Y502582D01*
G01X9053004Y502582D01*
G01X9053004Y-320099D01*
G01X9237503Y-320099D01*
G01X9280042Y-296903D01*
G01X9295123Y-276499D01*
G01X9310204Y-256095D01*
G01X9324769Y-222328D01*
G01X9339334Y-188561D01*
G01X9346616Y-160197D01*
G01X9353898Y-131833D01*
G01X9361944Y-79991D01*
G01X9369990Y-28149D01*
G01X9371784Y55477D01*
G01X9373579Y139102D01*
G01X9366497Y192822D01*
G01X9359416Y246542D01*
G01X9344275Y303852D01*
G01X9329135Y361162D01*
G01X9311074Y392817D01*
G01X9293012Y424473D01*
G01X9265394Y450402D01*
G01X9237776Y476331D01*
G01X9219622Y486444D01*
G01X9201469Y496557D01*
G01X9201469Y496557D01*
G01X9053004Y502582D01*
G01X8888025Y502582D01*
G01X8884961Y504820D01*
G01X8884961Y530084D01*
G01X9249169Y533400D01*
G01X9310526Y508752D01*
G01X9355472Y463709D01*
G01X9377991Y434919D01*
G01X9400510Y406129D01*
G01X9411110Y387337D01*
G01X9421710Y368545D01*
G01X9437925Y315491D01*
G01X9454140Y262438D01*
G01X9460402Y229433D01*
G01X9466664Y196427D01*
G01X9475199Y77395D01*
G01X9469809Y11508D01*
G01X9464420Y-54379D01*
G01X9454148Y-102221D01*
G01X9443876Y-150062D01*
G01X9431231Y-182573D01*
G01X9418586Y-215084D01*
G01X9405661Y-235509D01*
G01X9392736Y-255934D01*
G01X9388466Y-255934D01*
G01X9378713Y-269590D01*
G01X9368961Y-283247D01*
G01X9318712Y-324920D01*
G01X9304973Y-329484D01*
G01X9291235Y-334048D01*
G01X9289608Y-339227D01*
G01X9287980Y-344405D01*
G01X9301464Y-355014D01*
G01X9314947Y-365623D01*
G01X9343486Y-404234D01*
G01X9401797Y-520550D01*
G01X9417229Y-567133D01*
G01X9440602Y-637715D01*
G01X9452087Y-682588D01*
G01X9469533Y-735768D01*
G01X9486979Y-788949D01*
G01X9486979Y-801199D01*
G01X9502478Y-835055D01*
G01X9517978Y-868910D01*
G01X9542450Y-931854D01*
G01X9566922Y-994797D01*
G01X9580949Y-1035536D01*
G01X9596850Y-1065940D01*
G01X9612751Y-1096344D01*
G01X9664811Y-1161053D01*
G01X9676232Y-1167012D01*
G01X9687652Y-1172971D01*
G01X9699573Y-1176613D01*
G01X9711494Y-1180256D01*
G01X9713497Y-1190519D01*
G01X9715500Y-1200783D01*
G37*
G04 Image End*

G04 Text Start*
G36*
G01X3945313Y265546D02*
G01X3910330Y265892D01*
G01X3908598Y266931D01*
G01X3906866Y268316D01*
G01X3906087Y269356D01*
G01X3905827Y271087D01*
G01X3906174Y275590D01*
G01X3931804Y403744D01*
G01X3932497Y406516D01*
G01X3933190Y407988D01*
G01X3934576Y408940D01*
G01X3937346Y409979D01*
G01X3947391Y410326D01*
G01X3958474Y409633D01*
G01X3960899Y407901D01*
G01X3960899Y405823D01*
G01X3952586Y364259D01*
G01X3951201Y356639D01*
G01X3938732Y294294D01*
G01X3938386Y291523D01*
G01X3938386Y289791D01*
G01X3960899Y289791D01*
G01X3984798Y289098D01*
G01X3985837Y287799D01*
G01X3986184Y285288D01*
G01X3985837Y281132D01*
G01X3985144Y277322D01*
G01X3984106Y273166D01*
G01X3983066Y270048D01*
G01X3980988Y266931D01*
G01X3971203Y265892D01*
G01X3945313Y265546D01*
G37*
G36*
G01X4055803Y263121D02*
G01X4053724Y263121D01*
G01X4049914Y263467D01*
G01X4043334Y263814D01*
G01X4039177Y264506D01*
G01X4035714Y265199D01*
G01X4031211Y266238D01*
G01X4027054Y267624D01*
G01X4023937Y269009D01*
G01X4021166Y270394D01*
G01X4018049Y272126D01*
G01X4015624Y273858D01*
G01X4012161Y276629D01*
G01X4009736Y279054D01*
G01X4007658Y281824D01*
G01X4005926Y284596D01*
G01X4004194Y287713D01*
G01X4002809Y290830D01*
G01X4001770Y293601D01*
G01X4000384Y299143D01*
G01X3999692Y303992D01*
G01X3999346Y313344D01*
G01X3999564Y319232D01*
G01X4030172Y319232D01*
G01X4030172Y316461D01*
G01X4030518Y313344D01*
G01X4030864Y308841D01*
G01X4031557Y305377D01*
G01X4032250Y302606D01*
G01X4033289Y299836D01*
G01X4035021Y297064D01*
G01X4036753Y294986D01*
G01X4039870Y291869D01*
G01X4041948Y290484D01*
G01X4045066Y289098D01*
G01X4048183Y288059D01*
G01X4051646Y287713D01*
G01X4051646Y287713D01*
G01X4054417Y287366D01*
G01X4057188Y287020D01*
G01X4060652Y287366D01*
G01X4066194Y288059D01*
G01X4069311Y288752D01*
G01X4072774Y289791D01*
G01X4075892Y291176D01*
G01X4079356Y292908D01*
G01X4081780Y294640D01*
G01X4083858Y296026D01*
G01X4085936Y297757D01*
G01X4087668Y299489D01*
G01X4093210Y306416D01*
G01X4094942Y308841D01*
G01X4096674Y311958D01*
G01X4098059Y314729D01*
G01X4101176Y322003D01*
G01X4102216Y324774D01*
G01X4103254Y327891D01*
G01X4104294Y331354D01*
G01X4104986Y334472D01*
G01X4106372Y341399D01*
G01X4107064Y346941D01*
G01X4107411Y356293D01*
G01X4107064Y365644D01*
G01X4106718Y368069D01*
G01X4106026Y370840D01*
G01X4104986Y373957D01*
G01X4103601Y377074D01*
G01X4101869Y379846D01*
G01X4100137Y381577D01*
G01X4098406Y382963D01*
G01X4096327Y384694D01*
G01X4093903Y386080D01*
G01X4091132Y387119D01*
G01X4088361Y387812D01*
G01X4085936Y388158D01*
G01X4082126Y388504D01*
G01X4078663Y388504D01*
G01X4075546Y388158D01*
G01X4071736Y387812D01*
G01X4066194Y386426D01*
G01X4063423Y385387D01*
G01X4060652Y384002D01*
G01X4057188Y381924D01*
G01X4054417Y379846D01*
G01X4050954Y377074D01*
G01X4049222Y375343D01*
G01X4046451Y371879D01*
G01X4044719Y369454D01*
G01X4042987Y366684D01*
G01X4039524Y360449D01*
G01X4038138Y357332D01*
G01X4036753Y353522D01*
G01X4035367Y349366D01*
G01X4033982Y344863D01*
G01X4032943Y341399D01*
G01X4031557Y334472D01*
G01X4030864Y329623D01*
G01X4030518Y324774D01*
G01X4030172Y319232D01*
G01X3999564Y319232D01*
G01X3999692Y322696D01*
G01X4001077Y333779D01*
G01X4002463Y340706D01*
G01X4003156Y343824D01*
G01X4004194Y347980D01*
G01X4005234Y351097D01*
G01X4005926Y353868D01*
G01X4006966Y356986D01*
G01X4008351Y360103D01*
G01X4009736Y363566D01*
G01X4014239Y372572D01*
G01X4015971Y375343D01*
G01X4017356Y377767D01*
G01X4019434Y380884D01*
G01X4021513Y383656D01*
G01X4024284Y387119D01*
G01X4032943Y395778D01*
G01X4035714Y397856D01*
G01X4039177Y400281D01*
G01X4041948Y402013D01*
G01X4046797Y404784D01*
G01X4049914Y406169D01*
G01X4053378Y407554D01*
G01X4059613Y409633D01*
G01X4063423Y410672D01*
G01X4066886Y411364D01*
G01X4072428Y412057D01*
G01X4082126Y412404D01*
G01X4091824Y412057D01*
G01X4097366Y411364D01*
G01X4100830Y410672D01*
G01X4105679Y409633D01*
G01X4110182Y408247D01*
G01X4113299Y406862D01*
G01X4116070Y405476D01*
G01X4119187Y403744D01*
G01X4121612Y402013D01*
G01X4125076Y399242D01*
G01X4127500Y396817D01*
G01X4129578Y394046D01*
G01X4130964Y392314D01*
G01X4132349Y389890D01*
G01X4133734Y387119D01*
G01X4135120Y384002D01*
G01X4136159Y380884D01*
G01X4137544Y375343D01*
G01X4138237Y369801D01*
G01X4138584Y362181D01*
G01X4138237Y354561D01*
G01X4137891Y352136D01*
G01X4137544Y347634D01*
G01X4136852Y342092D01*
G01X4136159Y338628D01*
G01X4134081Y329276D01*
G01X4130964Y318886D01*
G01X4129578Y315768D01*
G01X4128193Y312304D01*
G01X4126807Y309187D01*
G01X4125422Y306416D01*
G01X4122651Y301567D01*
G01X4120919Y298450D01*
G01X4118494Y294986D01*
G01X4116416Y292216D01*
G01X4113646Y288752D01*
G01X4104986Y280093D01*
G01X4103254Y278707D01*
G01X4100830Y276976D01*
G01X4097713Y274897D01*
G01X4094942Y273166D01*
G01X4092517Y271780D01*
G01X4089746Y270394D01*
G01X4086283Y269009D01*
G01X4082473Y267624D01*
G01X4078316Y266238D01*
G01X4074506Y265199D01*
G01X4071736Y264506D01*
G01X4066886Y263814D01*
G01X4061691Y263467D01*
G01X4055803Y263121D01*
G37*
G36*
G01X5504988Y265546D02*
G01X5466542Y265892D01*
G01X5463771Y267970D01*
G01X5462386Y271087D01*
G01X5462732Y274204D01*
G01X5487670Y398896D01*
G01X5488363Y401666D01*
G01X5489402Y404437D01*
G01X5491826Y407554D01*
G01X5494944Y409286D01*
G01X5497368Y409979D01*
G01X5533390Y410326D01*
G01X5570451Y409633D01*
G01X5572096Y408680D01*
G01X5572876Y407208D01*
G01X5572876Y403744D01*
G01X5572183Y399588D01*
G01X5571490Y396124D01*
G01X5570451Y393007D01*
G01X5568719Y389544D01*
G01X5566294Y387466D01*
G01X5539624Y386773D01*
G01X5513994Y386080D01*
G01X5513301Y384348D01*
G01X5509144Y363566D01*
G01X5507759Y357332D01*
G01X5507066Y353868D01*
G01X5506720Y351444D01*
G01X5552440Y351444D01*
G01X5553133Y349712D01*
G01X5553479Y346941D01*
G01X5552440Y339667D01*
G01X5551747Y336896D01*
G01X5550362Y333779D01*
G01X5548284Y330662D01*
G01X5541876Y329623D01*
G01X5525424Y329276D01*
G01X5502910Y328584D01*
G01X5501524Y325466D01*
G01X5494597Y290830D01*
G01X5494251Y288406D01*
G01X5520228Y288406D01*
G01X5547591Y287713D01*
G01X5548630Y286414D01*
G01X5548976Y283903D01*
G01X5548630Y279054D01*
G01X5547937Y276283D01*
G01X5547244Y273166D01*
G01X5545859Y269356D01*
G01X5543434Y266584D01*
G01X5533130Y265805D01*
G01X5504988Y265546D01*
G37*
G36*
G01X5614093Y265546D02*
G01X5578417Y266238D01*
G01X5575300Y268316D01*
G01X5574261Y269788D01*
G01X5573914Y271434D01*
G01X5574261Y274897D01*
G01X5587423Y340706D01*
G01X5588116Y343477D01*
G01X5599199Y398896D01*
G01X5599892Y402706D01*
G01X5600931Y406862D01*
G01X5603009Y408940D01*
G01X5605434Y409979D01*
G01X5614786Y410326D01*
G01X5624830Y409979D01*
G01X5627947Y408940D01*
G01X5628986Y408074D01*
G01X5629333Y406862D01*
G01X5628986Y404437D01*
G01X5606819Y293601D01*
G01X5606473Y291176D01*
G01X5612274Y290137D01*
G01X5629679Y289791D01*
G01X5647344Y289444D01*
G01X5653924Y288406D01*
G01X5654617Y286760D01*
G01X5654617Y284596D01*
G01X5653924Y279746D01*
G01X5652886Y274897D01*
G01X5651500Y270741D01*
G01X5650114Y268316D01*
G01X5648729Y266584D01*
G01X5639724Y265805D01*
G01X5614093Y265546D01*
G37*
G36*
G01X5243137Y263121D02*
G01X5241059Y263121D01*
G01X5236903Y263467D01*
G01X5231361Y263814D01*
G01X5223048Y265199D01*
G01X5218892Y266238D01*
G01X5215082Y267624D01*
G01X5211964Y269009D01*
G01X5208501Y270741D01*
G01X5203652Y274204D01*
G01X5201227Y276283D01*
G01X5199842Y278014D01*
G01X5198110Y280439D01*
G01X5196378Y283210D01*
G01X5194993Y285981D01*
G01X5193607Y290137D01*
G01X5192568Y293601D01*
G01X5191876Y299143D01*
G01X5191529Y302606D01*
G01X5191876Y306070D01*
G01X5192222Y309187D01*
G01X5192568Y312997D01*
G01X5193261Y317154D01*
G01X5210579Y403744D01*
G01X5211272Y406516D01*
G01X5211964Y407988D01*
G01X5213350Y408940D01*
G01X5216121Y409979D01*
G01X5224780Y410326D01*
G01X5234132Y409979D01*
G01X5236903Y409286D01*
G01X5238981Y408247D01*
G01X5239674Y407208D01*
G01X5239674Y405476D01*
G01X5238981Y402359D01*
G01X5222356Y319232D01*
G01X5221663Y313690D01*
G01X5221316Y310573D01*
G01X5221663Y307456D01*
G01X5222356Y303299D01*
G01X5223394Y299143D01*
G01X5224780Y296372D01*
G01X5226512Y293947D01*
G01X5228244Y292216D01*
G01X5230322Y290484D01*
G01X5233093Y289098D01*
G01X5236556Y288059D01*
G01X5239674Y287366D01*
G01X5243830Y287020D01*
G01X5247986Y287366D01*
G01X5253528Y288059D01*
G01X5256646Y288752D01*
G01X5259763Y289791D01*
G01X5265304Y292562D01*
G01X5267383Y293947D01*
G01X5270846Y296718D01*
G01X5273271Y299143D01*
G01X5275696Y302606D01*
G01X5277427Y305031D01*
G01X5278466Y307109D01*
G01X5279506Y309534D01*
G01X5280544Y312304D01*
G01X5281584Y315422D01*
G01X5282623Y318886D01*
G01X5283316Y322003D01*
G01X5298556Y398203D01*
G01X5299248Y402013D01*
G01X5300287Y406516D01*
G01X5302366Y408940D01*
G01X5304790Y409979D01*
G01X5313449Y410326D01*
G01X5322801Y409979D01*
G01X5325572Y409286D01*
G01X5327650Y408247D01*
G01X5328343Y407208D01*
G01X5328343Y405476D01*
G01X5327650Y402359D01*
G01X5310332Y315768D01*
G01X5309293Y311958D01*
G01X5308254Y308494D01*
G01X5307214Y305377D01*
G01X5304444Y299143D01*
G01X5303058Y296372D01*
G01X5301326Y293254D01*
G01X5299248Y290137D01*
G01X5297516Y287713D01*
G01X5296131Y285634D01*
G01X5294399Y283556D01*
G01X5290243Y279400D01*
G01X5286779Y276629D01*
G01X5284008Y274551D01*
G01X5278466Y271087D01*
G01X5275696Y269702D01*
G01X5272232Y268316D01*
G01X5268422Y266931D01*
G01X5265304Y265892D01*
G01X5259070Y264506D01*
G01X5254221Y263814D01*
G01X5249026Y263467D01*
G01X5243137Y263121D01*
G37*
G36*
G01X5346007Y264853D02*
G01X5339773Y265199D01*
G01X5337348Y265892D01*
G01X5334231Y266931D01*
G01X5333278Y268057D01*
G01X5333192Y270048D01*
G01X5333884Y273512D01*
G01X5335270Y279746D01*
G01X5349125Y349019D01*
G01X5377873Y349019D01*
G01X5378219Y346941D01*
G01X5386878Y346594D01*
G01X5396230Y346941D01*
G01X5398654Y347287D01*
G01X5402464Y347980D01*
G01X5405928Y349366D01*
G01X5408699Y350751D01*
G01X5411124Y352136D01*
G01X5413548Y353868D01*
G01X5415973Y355946D01*
G01X5417358Y357678D01*
G01X5418744Y359756D01*
G01X5420129Y362874D01*
G01X5421168Y365644D01*
G01X5421861Y371186D01*
G01X5421861Y372918D01*
G01X5421514Y375343D01*
G01X5420822Y378460D01*
G01X5419436Y381231D01*
G01X5417704Y383309D01*
G01X5415280Y385041D01*
G01X5412163Y386426D01*
G01X5409392Y387119D01*
G01X5397269Y387466D01*
G01X5388783Y387206D01*
G01X5385493Y386426D01*
G01X5384454Y382963D01*
G01X5378219Y351790D01*
G01X5377873Y349019D01*
G01X5377873Y349019D01*
G01X5349125Y349019D01*
G01X5357437Y390583D01*
G01X5358130Y394393D01*
G01X5359169Y399588D01*
G01X5360554Y404091D01*
G01X5362979Y407554D01*
G01X5366443Y409286D01*
G01X5369214Y409979D01*
G01X5388610Y410326D01*
G01X5408006Y409979D01*
G01X5418397Y409286D01*
G01X5426710Y407901D01*
G01X5429481Y407208D01*
G01X5432944Y406169D01*
G01X5436408Y404784D01*
G01X5439526Y403052D01*
G01X5441950Y401666D01*
G01X5443682Y400281D01*
G01X5447146Y396817D01*
G01X5448531Y395086D01*
G01X5449916Y392661D01*
G01X5451302Y389890D01*
G01X5452341Y386773D01*
G01X5453034Y383656D01*
G01X5453380Y379846D01*
G01X5453034Y376036D01*
G01X5452341Y370494D01*
G01X5451994Y368069D01*
G01X5451302Y365298D01*
G01X5450263Y362181D01*
G01X5449224Y359410D01*
G01X5446106Y353176D01*
G01X5443682Y349712D01*
G01X5441604Y346941D01*
G01X5436408Y341746D01*
G01X5434676Y340360D01*
G01X5432252Y338628D01*
G01X5429481Y336896D01*
G01X5423939Y334126D01*
G01X5420822Y333086D01*
G01X5419350Y332567D01*
G01X5419090Y331701D01*
G01X5420822Y329623D01*
G01X5423246Y327891D01*
G01X5425324Y325466D01*
G01X5427056Y322696D01*
G01X5428442Y319924D01*
G01X5429827Y316114D01*
G01X5431213Y311612D01*
G01X5432252Y308148D01*
G01X5433637Y301914D01*
G01X5437794Y281132D01*
G01X5439179Y273512D01*
G01X5439526Y270741D01*
G01X5438833Y267970D01*
G01X5436754Y266238D01*
G01X5433637Y265546D01*
G01X5430866Y265199D01*
G01X5424978Y264853D01*
G01X5417704Y265199D01*
G01X5412856Y265892D01*
G01X5409392Y267277D01*
G01X5408006Y270048D01*
G01X5406621Y276976D01*
G01X5404543Y289444D01*
G01X5403850Y292908D01*
G01X5402464Y301221D01*
G01X5401772Y305031D01*
G01X5400733Y309187D01*
G01X5399694Y312304D01*
G01X5398654Y315076D01*
G01X5397269Y317500D01*
G01X5395537Y319578D01*
G01X5393806Y321310D01*
G01X5391381Y323042D01*
G01X5388610Y324081D01*
G01X5380644Y324427D01*
G01X5375275Y324081D01*
G01X5373024Y323042D01*
G01X5371984Y319924D01*
G01X5371292Y316461D01*
G01X5370599Y313690D01*
G01X5363672Y279054D01*
G01X5362979Y275244D01*
G01X5361940Y270048D01*
G01X5361074Y268057D01*
G01X5359862Y266931D01*
G01X5357437Y265892D01*
G01X5352588Y265199D01*
G01X5346007Y264853D01*
G37*
G36*
G01X4160751Y264853D02*
G01X4154863Y265199D01*
G01X4152784Y265546D01*
G01X4149321Y266584D01*
G01X4148109Y267970D01*
G01X4147936Y270048D01*
G01X4161097Y335857D01*
G01X4161790Y339667D01*
G01X4162829Y344863D01*
G01X4163868Y349019D01*
G01X4192616Y349019D01*
G01X4192963Y346941D01*
G01X4200583Y346594D01*
G01X4210974Y346941D01*
G01X4215130Y347634D01*
G01X4217901Y348326D01*
G01X4220672Y349366D01*
G01X4223443Y350751D01*
G01X4225867Y352136D01*
G01X4227599Y353176D01*
G01X4230024Y355254D01*
G01X4232102Y358024D01*
G01X4233487Y360103D01*
G01X4234873Y362874D01*
G01X4235912Y365644D01*
G01X4236258Y371879D01*
G01X4235566Y378460D01*
G01X4234180Y381231D01*
G01X4232448Y383309D01*
G01X4230024Y385041D01*
G01X4226906Y386426D01*
G01X4224136Y387119D01*
G01X4212013Y387466D01*
G01X4203527Y387206D01*
G01X4200236Y386426D01*
G01X4199197Y382963D01*
G01X4192963Y351790D01*
G01X4192616Y349019D01*
G01X4192616Y349019D01*
G01X4163868Y349019D01*
G01X4174259Y400974D01*
G01X4175298Y404437D01*
G01X4177723Y407554D01*
G01X4181186Y409286D01*
G01X4183957Y409979D01*
G01X4203354Y410326D01*
G01X4222750Y409979D01*
G01X4226906Y409633D01*
G01X4233141Y409286D01*
G01X4237297Y408594D01*
G01X4239722Y408247D01*
G01X4243186Y407554D01*
G01X4247342Y406169D01*
G01X4251152Y404784D01*
G01X4254269Y403052D01*
G01X4257040Y401320D01*
G01X4259118Y399588D01*
G01X4260850Y397856D01*
G01X4262928Y395432D01*
G01X4264660Y392661D01*
G01X4265699Y390236D01*
G01X4266738Y387466D01*
G01X4267777Y382963D01*
G01X4267777Y376728D01*
G01X4267084Y371186D01*
G01X4266392Y367723D01*
G01X4265699Y364606D01*
G01X4264660Y361142D01*
G01X4263274Y358024D01*
G01X4261889Y355254D01*
G01X4260504Y352829D01*
G01X4259118Y350751D01*
G01X4257386Y348326D01*
G01X4255308Y345902D01*
G01X4251844Y342438D01*
G01X4250113Y341053D01*
G01X4245264Y337589D01*
G01X4242839Y336204D01*
G01X4240068Y334818D01*
G01X4237644Y333779D01*
G01X4234873Y332740D01*
G01X4234007Y331961D01*
G01X4234180Y331008D01*
G01X4238336Y327544D01*
G01X4240068Y325120D01*
G01X4241800Y322349D01*
G01X4243186Y319578D01*
G01X4244571Y316114D01*
G01X4245956Y311612D01*
G01X4246996Y308148D01*
G01X4248381Y301221D01*
G01X4249766Y294986D01*
G01X4252537Y281132D01*
G01X4253923Y273512D01*
G01X4254269Y270741D01*
G01X4253576Y267970D01*
G01X4251498Y266238D01*
G01X4248381Y265546D01*
G01X4245610Y265199D01*
G01X4239029Y264853D01*
G01X4232448Y265199D01*
G01X4229677Y265546D01*
G01X4225867Y266238D01*
G01X4224136Y267277D01*
G01X4223096Y269009D01*
G01X4222057Y272819D01*
G01X4219979Y285288D01*
G01X4219286Y288752D01*
G01X4217208Y301221D01*
G01X4216169Y306763D01*
G01X4214784Y311266D01*
G01X4213398Y314729D01*
G01X4212013Y317500D01*
G01X4210281Y319578D01*
G01X4208549Y321310D01*
G01X4206124Y323042D01*
G01X4203354Y324081D01*
G01X4195041Y324427D01*
G01X4189499Y324081D01*
G01X4187421Y323042D01*
G01X4186728Y320617D01*
G01X4177030Y272126D01*
G01X4176337Y269356D01*
G01X4175731Y267883D01*
G01X4174606Y266931D01*
G01X4172181Y265892D01*
G01X4167332Y265199D01*
G01X4160751Y264853D01*
G37*
G36*
G01X4276090Y264853D02*
G01X4268124Y265199D01*
G01X4265353Y266238D01*
G01X4263621Y267970D01*
G01X4263967Y270394D01*
G01X4265353Y273512D01*
G01X4269856Y282517D01*
G01X4271587Y285288D01*
G01X4272973Y288059D01*
G01X4275744Y292908D01*
G01X4277476Y296372D01*
G01X4279207Y299143D01*
G01X4280593Y301914D01*
G01X4284056Y308148D01*
G01X4285788Y311612D01*
G01X4287520Y314383D01*
G01X4288906Y317154D01*
G01X4292177Y323042D01*
G01X4320424Y323042D01*
G01X4320424Y321310D01*
G01X4340514Y320964D01*
G01X4355234Y321223D01*
G01X4359910Y322003D01*
G01X4359217Y326852D01*
G01X4358524Y332394D01*
G01X4357832Y337243D01*
G01X4357139Y342784D01*
G01X4355754Y352483D01*
G01X4355061Y358024D01*
G01X4354368Y362874D01*
G01X4353676Y368416D01*
G01X4352636Y375689D01*
G01X4352290Y378806D01*
G01X4351251Y380884D01*
G01X4350558Y380711D01*
G01X4349866Y379499D01*
G01X4348134Y376036D01*
G01X4346402Y373264D01*
G01X4342246Y364952D01*
G01X4338782Y358717D01*
G01X4334279Y349712D01*
G01X4332547Y346941D01*
G01X4327006Y335857D01*
G01X4324234Y331008D01*
G01X4321464Y325466D01*
G01X4320424Y323042D01*
G01X4320424Y323042D01*
G01X4292177Y323042D01*
G01X4292369Y323388D01*
G01X4294101Y326852D01*
G01X4295833Y329623D01*
G01X4297218Y332394D01*
G01X4304146Y344863D01*
G01X4305877Y348326D01*
G01X4307609Y351097D01*
G01X4308994Y353868D01*
G01X4312458Y360103D01*
G01X4314190Y363566D01*
G01X4315922Y366337D01*
G01X4317307Y369108D01*
G01X4324234Y381577D01*
G01X4325966Y385041D01*
G01X4327698Y387812D01*
G01X4329084Y390583D01*
G01X4332547Y396817D01*
G01X4333933Y399588D01*
G01X4336704Y404437D01*
G01X4337743Y406516D01*
G01X4339821Y408594D01*
G01X4342592Y409979D01*
G01X4348134Y410326D01*
G01X4354368Y410672D01*
G01X4357139Y410672D01*
G01X4363374Y410326D01*
G01X4370301Y409979D01*
G01X4373072Y409286D01*
G01X4375150Y408247D01*
G01X4376536Y405476D01*
G01X4377228Y402359D01*
G01X4378614Y392661D01*
G01X4379306Y388504D01*
G01X4381384Y373957D01*
G01X4382077Y369801D01*
G01X4384848Y350404D01*
G01X4385541Y346248D01*
G01X4388312Y326852D01*
G01X4389004Y322696D01*
G01X4391083Y308148D01*
G01X4391776Y303992D01*
G01X4394546Y284596D01*
G01X4395239Y280439D01*
G01X4395932Y274897D01*
G01X4395932Y270048D01*
G01X4394200Y266931D01*
G01X4392728Y265892D01*
G01X4391083Y265546D01*
G01X4388312Y265199D01*
G01X4381038Y264853D01*
G01X4373764Y265199D01*
G01X4371340Y265546D01*
G01X4368223Y266584D01*
G01X4366924Y267710D01*
G01X4366491Y269009D01*
G01X4365452Y276283D01*
G01X4364759Y281824D01*
G01X4363027Y293947D01*
G01X4362681Y297064D01*
G01X4362334Y298796D01*
G01X4335664Y298796D01*
G01X4308302Y298104D01*
G01X4306570Y295679D01*
G01X4304838Y292908D01*
G01X4300682Y284596D01*
G01X4297911Y279746D01*
G01X4292716Y269356D01*
G01X4291330Y267624D01*
G01X4288906Y266238D01*
G01X4286134Y265546D01*
G01X4283710Y265199D01*
G01X4276090Y264853D01*
G37*
G36*
G01X4426758Y264853D02*
G01X4420870Y265199D01*
G01X4418792Y265892D01*
G01X4416367Y266584D01*
G01X4415328Y267277D01*
G01X4414982Y268663D01*
G01X4415328Y271434D01*
G01X4440266Y396124D01*
G01X4440959Y399242D01*
G01X4441998Y402706D01*
G01X4443384Y405130D01*
G01X4445808Y407554D01*
G01X4449618Y409286D01*
G01X4452736Y409979D01*
G01X4460356Y410326D01*
G01X4467976Y409979D01*
G01X4471439Y409633D01*
G01X4474903Y408940D01*
G01X4477674Y407554D01*
G01X4480098Y405823D01*
G01X4481484Y403744D01*
G01X4483562Y399588D01*
G01X4484601Y396817D01*
G01X4496031Y362527D01*
G01X4498109Y355600D01*
G01X4508500Y324427D01*
G01X4512656Y310573D01*
G01X4513349Y307802D01*
G01X4513609Y306936D01*
G01X4514388Y307109D01*
G01X4515254Y308408D01*
G01X4515774Y310919D01*
G01X4516466Y315768D01*
G01X4517159Y319924D01*
G01X4517852Y323388D01*
G01X4520623Y338628D01*
G01X4522008Y344863D01*
G01X4533784Y403744D01*
G01X4535170Y407554D01*
G01X4537594Y409286D01*
G01X4540019Y409979D01*
G01X4547639Y410326D01*
G01X4556644Y409633D01*
G01X4559762Y408247D01*
G01X4560108Y406516D01*
G01X4534477Y278361D01*
G01X4533438Y273858D01*
G01X4532053Y271087D01*
G01X4530667Y269356D01*
G01X4528589Y267624D01*
G01X4525818Y266238D01*
G01X4515427Y265546D01*
G01X4505383Y265892D01*
G01X4502612Y266584D01*
G01X4500187Y267624D01*
G01X4498456Y269009D01*
G01X4496724Y271087D01*
G01X4495338Y273512D01*
G01X4494299Y275936D01*
G01X4493260Y278707D01*
G01X4482869Y309880D01*
G01X4480791Y316807D01*
G01X4470400Y347980D01*
G01X4468322Y354907D01*
G01X4467283Y358024D01*
G01X4466244Y361834D01*
G01X4465204Y364952D01*
G01X4464512Y368069D01*
G01X4463473Y372226D01*
G01X4462434Y375343D01*
G01X4462001Y375776D01*
G01X4461394Y374996D01*
G01X4460356Y371186D01*
G01X4458970Y361488D01*
G01X4457584Y354561D01*
G01X4456892Y350404D01*
G01X4440959Y270741D01*
G01X4439227Y267624D01*
G01X4435764Y265892D01*
G01X4432646Y265199D01*
G01X4426758Y264853D01*
G37*
G36*
G01X4621414Y263467D02*
G01X4612756Y263814D01*
G01X4604096Y265546D01*
G01X4600979Y266584D01*
G01X4598554Y267277D01*
G01X4596130Y268316D01*
G01X4590588Y271087D01*
G01X4588164Y272473D01*
G01X4586086Y274204D01*
G01X4584354Y275590D01*
G01X4582968Y276976D01*
G01X4581583Y278707D01*
G01X4579851Y280439D01*
G01X4578466Y282171D01*
G01X4577080Y284249D01*
G01X4575694Y286674D01*
G01X4574309Y289444D01*
G01X4572924Y292908D01*
G01X4571884Y295679D01*
G01X4570499Y301221D01*
G01X4569806Y306763D01*
G01X4569460Y314729D01*
G01X4569806Y324081D01*
G01X4570499Y329623D01*
G01X4571192Y334472D01*
G01X4571884Y337936D01*
G01X4572577Y340706D01*
G01X4573270Y343824D01*
G01X4574309Y348326D01*
G01X4575694Y352136D01*
G01X4577773Y358371D01*
G01X4581929Y367723D01*
G01X4583314Y370494D01*
G01X4586778Y376036D01*
G01X4588164Y378460D01*
G01X4589549Y380538D01*
G01X4590588Y382270D01*
G01X4594744Y387466D01*
G01X4602364Y395086D01*
G01X4605136Y397164D01*
G01X4606867Y398549D01*
G01X4609292Y400281D01*
G01X4612063Y402013D01*
G01X4616912Y404784D01*
G01X4619683Y406169D01*
G01X4623146Y407554D01*
G01X4626956Y408940D01*
G01X4630074Y409979D01*
G01X4636308Y411364D01*
G01X4641850Y412057D01*
G01X4648084Y412404D01*
G01X4654319Y412057D01*
G01X4656744Y411711D01*
G01X4659861Y411364D01*
G01X4663324Y410672D01*
G01X4666096Y409979D01*
G01X4669213Y409286D01*
G01X4672330Y408247D01*
G01X4677179Y406169D01*
G01X4679604Y404784D01*
G01X4681682Y403398D01*
G01X4683414Y402013D01*
G01X4685146Y399934D01*
G01X4686184Y397510D01*
G01X4686184Y394393D01*
G01X4685492Y390583D01*
G01X4684799Y387119D01*
G01X4684106Y384348D01*
G01X4683414Y381924D01*
G01X4682028Y378806D01*
G01X4679604Y376728D01*
G01X4677179Y377074D01*
G01X4674408Y379153D01*
G01X4670944Y381577D01*
G01X4668174Y383309D01*
G01X4665403Y384694D01*
G01X4661593Y386080D01*
G01X4658476Y387119D01*
G01X4650509Y387466D01*
G01X4641157Y386773D01*
G01X4636654Y385387D01*
G01X4632844Y383656D01*
G01X4630074Y381924D01*
G01X4627649Y380538D01*
G01X4621414Y375343D01*
G01X4620029Y373611D01*
G01X4617951Y371186D01*
G01X4615526Y367723D01*
G01X4613794Y365298D01*
G01X4612409Y362874D01*
G01X4609638Y357332D01*
G01X4608253Y354214D01*
G01X4606867Y350751D01*
G01X4605482Y346594D01*
G01X4604096Y342092D01*
G01X4602364Y335164D01*
G01X4601672Y329623D01*
G01X4601326Y320964D01*
G01X4601672Y312304D01*
G01X4603057Y306070D01*
G01X4604096Y303299D01*
G01X4606521Y298450D01*
G01X4607906Y296718D01*
G01X4609638Y294986D01*
G01X4612063Y292908D01*
G01X4614834Y291176D01*
G01X4617604Y290137D01*
G01X4620722Y289098D01*
G01X4629381Y288406D01*
G01X4637694Y288752D01*
G01X4641157Y289444D01*
G01X4644967Y290484D01*
G01X4648084Y291523D01*
G01X4650856Y292562D01*
G01X4657090Y295679D01*
G01X4659861Y297411D01*
G01X4662286Y298450D01*
G01X4665056Y298104D01*
G01X4666096Y297151D01*
G01X4666442Y295679D01*
G01X4666096Y291523D01*
G01X4665403Y287366D01*
G01X4664710Y284596D01*
G01X4664017Y281478D01*
G01X4662978Y278014D01*
G01X4661593Y275590D01*
G01X4659514Y273512D01*
G01X4656744Y271434D01*
G01X4653626Y269702D01*
G01X4649816Y268316D01*
G01X4642543Y265892D01*
G01X4636308Y264506D01*
G01X4630766Y263814D01*
G01X4621414Y263467D01*
G37*
G36*
G01X4726709Y265546D02*
G01X4687916Y266238D01*
G01X4685492Y267970D01*
G01X4684453Y271087D01*
G01X4684799Y275590D01*
G01X4707659Y389890D01*
G01X4708352Y393700D01*
G01X4709391Y398896D01*
G01X4710430Y402359D01*
G01X4711123Y404784D01*
G01X4713201Y407554D01*
G01X4716664Y409286D01*
G01X4719436Y409979D01*
G01X4754764Y410326D01*
G01X4790786Y409979D01*
G01X4793557Y408940D01*
G01X4794337Y407641D01*
G01X4794596Y405130D01*
G01X4794250Y400974D01*
G01X4793557Y397510D01*
G01X4792518Y393700D01*
G01X4791133Y390583D01*
G01X4788708Y387812D01*
G01X4781088Y387033D01*
G01X4761692Y386773D01*
G01X4742555Y386426D01*
G01X4735714Y385387D01*
G01X4734676Y382270D01*
G01X4731212Y364952D01*
G01X4730519Y362181D01*
G01X4729134Y355254D01*
G01X4728787Y352829D01*
G01X4734243Y351790D01*
G01X4750608Y351444D01*
G01X4773814Y350751D01*
G01X4774854Y349625D01*
G01X4775200Y347634D01*
G01X4774854Y343477D01*
G01X4774161Y340014D01*
G01X4773468Y337243D01*
G01X4772429Y334126D01*
G01X4770004Y330662D01*
G01X4763424Y329623D01*
G01X4747144Y329276D01*
G01X4724977Y328930D01*
G01X4723592Y326852D01*
G01X4717357Y295679D01*
G01X4716664Y292908D01*
G01X4716318Y290137D01*
G01X4716318Y288406D01*
G01X4742642Y288406D01*
G01X4762644Y288146D01*
G01X4770004Y287366D01*
G01X4771044Y284249D01*
G01X4770697Y281132D01*
G01X4770004Y276976D01*
G01X4768966Y272819D01*
G01X4767926Y270048D01*
G01X4765848Y266931D01*
G01X4755198Y265892D01*
G01X4726709Y265546D01*
G37*
G36*
G01X4833736Y265546D02*
G01X4788708Y265892D01*
G01X4786284Y267970D01*
G01X4785244Y269875D01*
G01X4784898Y272126D01*
G01X4785244Y276976D01*
G01X4786284Y281824D01*
G01X4787669Y285981D01*
G01X4789054Y288752D01*
G01X4790786Y291523D01*
G01X4792518Y293947D01*
G01X4793904Y296026D01*
G01X4795636Y298104D01*
G01X4798406Y301567D01*
G01X4801870Y305724D01*
G01X4804641Y309187D01*
G01X4808104Y313344D01*
G01X4810876Y316807D01*
G01X4817803Y325120D01*
G01X4820574Y328584D01*
G01X4824037Y332740D01*
G01X4826808Y336204D01*
G01X4830272Y340360D01*
G01X4833043Y343824D01*
G01X4839970Y352136D01*
G01X4842741Y355600D01*
G01X4846204Y359756D01*
G01X4848976Y363220D01*
G01X4855903Y371533D01*
G01X4858674Y374996D01*
G01X4865601Y383309D01*
G01X4866986Y385387D01*
G01X4867333Y386773D01*
G01X4840316Y386773D01*
G01X4819708Y387033D01*
G01X4811914Y387812D01*
G01X4810876Y389197D01*
G01X4810529Y391276D01*
G01X4810876Y395432D01*
G01X4811568Y398896D01*
G01X4812607Y402706D01*
G01X4813993Y406169D01*
G01X4815378Y408247D01*
G01X4817456Y409633D01*
G01X4857288Y410326D01*
G01X4897466Y409979D01*
G01X4900930Y409286D01*
G01X4904047Y407554D01*
G01X4905086Y405909D01*
G01X4905433Y403744D01*
G01X4905086Y400281D01*
G01X4904394Y396817D01*
G01X4903354Y392314D01*
G01X4901969Y388504D01*
G01X4900584Y385734D01*
G01X4899198Y383656D01*
G01X4897813Y381924D01*
G01X4896774Y380192D01*
G01X4892617Y374996D01*
G01X4889154Y370840D01*
G01X4886383Y367376D01*
G01X4882919Y363220D01*
G01X4880148Y359756D01*
G01X4876684Y355600D01*
G01X4873914Y352136D01*
G01X4870450Y347980D01*
G01X4867679Y344516D01*
G01X4860752Y336204D01*
G01X4857981Y332740D01*
G01X4854517Y328584D01*
G01X4851746Y325120D01*
G01X4848283Y320964D01*
G01X4845512Y317500D01*
G01X4842048Y313344D01*
G01X4839277Y309880D01*
G01X4835814Y305724D01*
G01X4830272Y298796D01*
G01X4828540Y297064D01*
G01X4824384Y291869D01*
G01X4823344Y290137D01*
G01X4830532Y289358D01*
G01X4852786Y289098D01*
G01X4875386Y288838D01*
G01X4883612Y288059D01*
G01X4884391Y286674D01*
G01X4884651Y284596D01*
G01X4884304Y281132D01*
G01X4883612Y277322D01*
G01X4882573Y273166D01*
G01X4881534Y270048D01*
G01X4879456Y266931D01*
G01X4867159Y265892D01*
G01X4833736Y265546D01*
G37*
G36*
G01X4995487Y265546D02*
G01X4959812Y266238D01*
G01X4957041Y267970D01*
G01X4955656Y270741D01*
G01X4955656Y273512D01*
G01X4980594Y398203D01*
G01X4981286Y402013D01*
G01X4982326Y406516D01*
G01X4984057Y408594D01*
G01X4986482Y409633D01*
G01X4995834Y410326D01*
G01X5006224Y409979D01*
G01X5010034Y408594D01*
G01X5010987Y407554D01*
G01X5011074Y406516D01*
G01X5010381Y403744D01*
G01X5006917Y386426D01*
G01X5006224Y382270D01*
G01X4988214Y292216D01*
G01X4987867Y289791D01*
G01X5011074Y289791D01*
G01X5028738Y289531D01*
G01X5035319Y288752D01*
G01X5036358Y286327D01*
G01X5036012Y283210D01*
G01X5035319Y279054D01*
G01X5034626Y275590D01*
G01X5033934Y272819D01*
G01X5032548Y269356D01*
G01X5030470Y266584D01*
G01X5021205Y265805D01*
G01X4995487Y265546D01*
G37*
G36*
G01X5051252Y264853D02*
G01X5043978Y265199D01*
G01X5041554Y265892D01*
G01X5039129Y267277D01*
G01X5039129Y270394D01*
G01X5040514Y274204D01*
G01X5043978Y280439D01*
G01X5045710Y283903D01*
G01X5047442Y286674D01*
G01X5048827Y289444D01*
G01X5051598Y294294D01*
G01X5053330Y297757D01*
G01X5055062Y300528D01*
G01X5056447Y303299D01*
G01X5059911Y309534D01*
G01X5061643Y312997D01*
G01X5063374Y315768D01*
G01X5064760Y318539D01*
G01X5066299Y321310D01*
G01X5094894Y321310D01*
G01X5115329Y320964D01*
G01X5130309Y321137D01*
G01X5135072Y321656D01*
G01X5134726Y324081D01*
G01X5134379Y326852D01*
G01X5132994Y336550D01*
G01X5132301Y342092D01*
G01X5131608Y346941D01*
G01X5130916Y352483D01*
G01X5130223Y357332D01*
G01X5129530Y362874D01*
G01X5128144Y372572D01*
G01X5127798Y376036D01*
G01X5127106Y379846D01*
G01X5126413Y380625D01*
G01X5125720Y380192D01*
G01X5123988Y377767D01*
G01X5122256Y374650D01*
G01X5117754Y365644D01*
G01X5116022Y362874D01*
G01X5110134Y351097D01*
G01X5108402Y348326D01*
G01X5104246Y340014D01*
G01X5100782Y333779D01*
G01X5096626Y325466D01*
G01X5095240Y323042D01*
G01X5095240Y323042D01*
G01X5094894Y321310D01*
G01X5066299Y321310D01*
G01X5068224Y324774D01*
G01X5069956Y328237D01*
G01X5071687Y331008D01*
G01X5073073Y333779D01*
G01X5080000Y346248D01*
G01X5081732Y349712D01*
G01X5083464Y352483D01*
G01X5084849Y355254D01*
G01X5088313Y361488D01*
G01X5090044Y364952D01*
G01X5091776Y367723D01*
G01X5093162Y370494D01*
G01X5100089Y382963D01*
G01X5101821Y386426D01*
G01X5103553Y389197D01*
G01X5104938Y391968D01*
G01X5108402Y398203D01*
G01X5110134Y401666D01*
G01X5111866Y404437D01*
G01X5113251Y406862D01*
G01X5115329Y408940D01*
G01X5117754Y409979D01*
G01X5123296Y410326D01*
G01X5129530Y410672D01*
G01X5132301Y410672D01*
G01X5138536Y410326D01*
G01X5145463Y409979D01*
G01X5148234Y409286D01*
G01X5150312Y408247D01*
G01X5151697Y405823D01*
G01X5153083Y397510D01*
G01X5155854Y378114D01*
G01X5156546Y373957D01*
G01X5158624Y359410D01*
G01X5159317Y355254D01*
G01X5162088Y335857D01*
G01X5162781Y331701D01*
G01X5165552Y312304D01*
G01X5166244Y308148D01*
G01X5168323Y293601D01*
G01X5169016Y289444D01*
G01X5170401Y279746D01*
G01X5171094Y274204D01*
G01X5171094Y270394D01*
G01X5170401Y268057D01*
G01X5169016Y266584D01*
G01X5165898Y265546D01*
G01X5163474Y265199D01*
G01X5156200Y264853D01*
G01X5148926Y265199D01*
G01X5146502Y265546D01*
G01X5143731Y266238D01*
G01X5141999Y268316D01*
G01X5141306Y270741D01*
G01X5140267Y278014D01*
G01X5139921Y281132D01*
G01X5139228Y285981D01*
G01X5138536Y291523D01*
G01X5137496Y298796D01*
G01X5110826Y298796D01*
G01X5083464Y298104D01*
G01X5081732Y296026D01*
G01X5080000Y292908D01*
G01X5077229Y287366D01*
G01X5073766Y281132D01*
G01X5069609Y272819D01*
G01X5067877Y270048D01*
G01X5066146Y267624D01*
G01X5064067Y266238D01*
G01X5061296Y265546D01*
G01X5058872Y265199D01*
G01X5051252Y264853D01*
G37*
G36*
G01X4387504Y-39947D02*
G01X4381616Y-39601D01*
G01X4379537Y-39254D01*
G01X4376074Y-38216D01*
G01X4374861Y-37263D01*
G01X4374688Y-36484D01*
G01X4375381Y-33366D01*
G01X4390621Y42834D01*
G01X4391314Y46990D01*
G01X4400319Y92017D01*
G01X4401358Y95827D01*
G01X4403090Y99637D01*
G01X4405861Y102754D01*
G01X4409324Y104486D01*
G01X4412096Y105179D01*
G01X4421794Y105526D01*
G01X4431492Y105179D01*
G01X4434263Y104833D01*
G01X4438419Y104486D01*
G01X4442229Y103447D01*
G01X4445346Y101716D01*
G01X4447771Y99291D01*
G01X4449156Y96866D01*
G01X4450196Y93403D01*
G01X4450888Y89939D01*
G01X4452274Y81626D01*
G01X4452966Y76777D01*
G01X4457123Y51839D01*
G01X4457816Y46990D01*
G01X4461279Y26208D01*
G01X4461972Y21359D01*
G01X4464743Y4734D01*
G01X4465176Y3521D01*
G01X4465782Y3348D01*
G01X4467167Y4734D01*
G01X4471324Y12007D01*
G01X4473056Y15124D01*
G01X4474787Y17896D01*
G01X4481714Y30018D01*
G01X4483446Y33136D01*
G01X4485178Y35906D01*
G01X4492106Y48029D01*
G01X4493837Y51146D01*
G01X4495569Y53917D01*
G01X4505267Y70889D01*
G01X4506999Y74006D01*
G01X4508731Y76777D01*
G01X4518429Y93749D01*
G01X4519814Y95827D01*
G01X4521893Y98252D01*
G01X4525010Y101369D01*
G01X4528474Y103447D01*
G01X4531244Y104486D01*
G01X4536786Y105179D01*
G01X4546484Y105526D01*
G01X4558261Y105179D01*
G01X4562417Y104486D01*
G01X4564842Y103794D01*
G01X4566920Y102408D01*
G01X4568306Y99984D01*
G01X4568652Y95827D01*
G01X4567959Y92017D01*
G01X4554104Y22744D01*
G01X4552719Y15124D01*
G01X4544406Y-26439D01*
G01X4543714Y-30249D01*
G01X4542674Y-34752D01*
G01X4541289Y-37176D01*
G01X4539557Y-38562D01*
G01X4537133Y-39254D01*
G01X4534708Y-39601D01*
G01X4529166Y-39947D01*
G01X4523624Y-39601D01*
G01X4520507Y-39254D01*
G01X4516697Y-38216D01*
G01X4515485Y-37090D01*
G01X4515312Y-35791D01*
G01X4516004Y-32674D01*
G01X4537479Y74699D01*
G01X4537479Y78163D01*
G01X4537046Y79202D01*
G01X4536440Y78856D01*
G01X4534708Y76431D01*
G01X4526049Y60844D01*
G01X4523278Y55996D01*
G01X4509424Y31057D01*
G01X4506653Y26208D01*
G01X4489334Y-4964D01*
G01X4486564Y-9814D01*
G01X4479636Y-22283D01*
G01X4476866Y-27132D01*
G01X4475480Y-29903D01*
G01X4474094Y-32327D01*
G01X4472363Y-35444D01*
G01X4469938Y-37869D01*
G01X4467514Y-38908D01*
G01X4462664Y-39601D01*
G01X4458854Y-39947D01*
G01X4452966Y-39601D01*
G01X4448810Y-38908D01*
G01X4446039Y-38216D01*
G01X4444567Y-37609D01*
G01X4443614Y-36484D01*
G01X4442576Y-32674D01*
G01X4441883Y-28517D01*
G01X4431492Y44219D01*
G01X4430799Y48376D01*
G01X4427336Y72621D01*
G01X4426989Y75738D01*
G01X4426296Y78856D01*
G01X4425690Y79462D01*
G01X4425257Y79202D01*
G01X4424564Y77470D01*
G01X4403783Y-26439D01*
G01X4403090Y-30249D01*
G01X4402051Y-34752D01*
G01X4400666Y-37176D01*
G01X4398934Y-38562D01*
G01X4396509Y-39254D01*
G01X4394084Y-39601D01*
G01X4387504Y-39947D01*
G37*
G36*
G01X4616796Y-39947D02*
G01X4609523Y-39601D01*
G01X4606059Y-38562D01*
G01X4603981Y-36830D01*
G01X4603981Y-34059D01*
G01X4604674Y-29903D01*
G01X4612294Y8197D01*
G01X4612986Y12007D01*
G01X4612986Y15817D01*
G01X4612294Y18934D01*
G01X4594629Y77816D01*
G01X4593590Y80934D01*
G01X4592551Y84744D01*
G01X4589780Y93749D01*
G01X4588741Y96866D01*
G01X4588394Y99984D01*
G01X4589087Y103101D01*
G01X4590819Y104833D01*
G01X4595322Y105526D01*
G01X4600517Y105872D01*
G01X4603288Y105872D01*
G01X4607098Y105526D01*
G01X4612986Y105179D01*
G01X4615498Y104659D01*
G01X4616796Y103794D01*
G01X4618182Y100676D01*
G01X4619567Y96174D01*
G01X4622338Y86476D01*
G01X4623377Y83012D01*
G01X4624070Y80241D01*
G01X4625109Y76431D01*
G01X4626148Y73314D01*
G01X4627880Y66386D01*
G01X4628919Y62923D01*
G01X4630304Y57381D01*
G01X4631690Y51146D01*
G01X4633076Y44219D01*
G01X4633595Y43613D01*
G01X4634461Y43873D01*
G01X4636193Y46297D01*
G01X4637578Y49068D01*
G01X4638964Y51493D01*
G01X4640696Y54610D01*
G01X4642427Y57381D01*
G01X4643813Y59806D01*
G01X4649008Y68118D01*
G01X4657321Y80587D01*
G01X4660784Y86129D01*
G01X4669097Y98598D01*
G01X4670829Y101369D01*
G01X4672561Y103447D01*
G01X4674986Y104833D01*
G01X4680527Y105526D01*
G01X4685723Y105872D01*
G01X4687801Y105872D01*
G01X4697499Y105179D01*
G01X4700270Y104486D01*
G01X4701569Y103880D01*
G01X4702002Y102754D01*
G01X4701309Y99984D01*
G01X4699577Y96866D01*
G01X4689879Y83012D01*
G01X4686416Y78163D01*
G01X4676717Y64308D01*
G01X4673254Y59459D01*
G01X4663556Y45604D01*
G01X4660092Y40756D01*
G01X4650394Y26901D01*
G01X4643466Y17203D01*
G01X4642081Y13739D01*
G01X4641388Y10276D01*
G01X4640696Y6119D01*
G01X4634461Y-25054D01*
G01X4633768Y-28864D01*
G01X4632729Y-34059D01*
G01X4630997Y-37176D01*
G01X4628573Y-38562D01*
G01X4625802Y-39254D01*
G01X4623377Y-39601D01*
G01X4616796Y-39947D01*
G37*
G36*
G01X4780626Y-41679D02*
G01X4778548Y-41679D01*
G01X4775431Y-41333D01*
G01X4769543Y-40986D01*
G01X4765386Y-40294D01*
G01X4758459Y-38908D01*
G01X4755688Y-38216D01*
G01X4752571Y-37176D01*
G01X4749800Y-36137D01*
G01X4747376Y-35098D01*
G01X4744951Y-33713D01*
G01X4742180Y-31288D01*
G01X4740794Y-28171D01*
G01X4741141Y-25054D01*
G01X4741834Y-20897D01*
G01X4742526Y-17434D01*
G01X4743219Y-14663D01*
G01X4744258Y-11892D01*
G01X4745644Y-9814D01*
G01X4746596Y-9207D01*
G01X4748068Y-9467D01*
G01X4756381Y-13624D01*
G01X4758806Y-14663D01*
G01X4761576Y-15702D01*
G01X4764694Y-16741D01*
G01X4767464Y-17434D01*
G01X4773006Y-18126D01*
G01X4777509Y-18473D01*
G01X4782012Y-18126D01*
G01X4786861Y-17434D01*
G01X4789978Y-16741D01*
G01X4793096Y-15702D01*
G01X4795866Y-14316D01*
G01X4799330Y-12238D01*
G01X4802101Y-10160D01*
G01X4804526Y-7736D01*
G01X4806604Y-4272D01*
G01X4807989Y-1154D01*
G01X4809028Y3348D01*
G01X4809028Y7504D01*
G01X4808682Y9929D01*
G01X4807989Y12700D01*
G01X4806950Y15124D01*
G01X4805564Y16856D01*
G01X4803833Y18588D01*
G01X4801408Y20320D01*
G01X4798291Y21706D01*
G01X4794481Y22744D01*
G01X4791017Y23437D01*
G01X4779241Y23784D01*
G01X4767118Y24476D01*
G01X4765386Y26554D01*
G01X4765386Y28979D01*
G01X4765733Y31750D01*
G01X4766426Y34867D01*
G01X4767464Y37984D01*
G01X4768850Y41448D01*
G01X4770928Y44219D01*
G01X4773526Y44998D01*
G01X4779241Y45258D01*
G01X4789632Y45604D01*
G01X4793788Y46297D01*
G01X4796906Y46990D01*
G01X4800369Y48029D01*
G01X4803486Y49414D01*
G01X4805911Y50800D01*
G01X4807989Y52186D01*
G01X4810067Y53917D01*
G01X4811799Y55649D01*
G01X4813531Y57727D01*
G01X4815263Y60844D01*
G01X4816648Y64654D01*
G01X4817341Y68464D01*
G01X4817341Y71236D01*
G01X4816648Y74699D01*
G01X4815263Y78856D01*
G01X4813184Y81280D01*
G01X4811106Y82666D01*
G01X4808682Y83704D01*
G01X4806257Y84397D01*
G01X4802101Y84744D01*
G01X4797944Y84397D01*
G01X4793788Y83704D01*
G01X4789286Y82666D01*
G01X4786168Y81626D01*
G01X4783397Y80587D01*
G01X4778548Y78509D01*
G01X4775777Y77124D01*
G01X4773353Y75738D01*
G01X4771274Y74699D01*
G01X4768504Y73660D01*
G01X4767205Y73400D01*
G01X4766079Y74006D01*
G01X4765040Y76431D01*
G01X4765386Y80241D01*
G01X4766079Y83704D01*
G01X4766772Y86822D01*
G01X4767811Y90286D01*
G01X4769196Y93403D01*
G01X4770928Y95827D01*
G01X4773353Y97559D01*
G01X4776124Y99291D01*
G01X4778894Y100676D01*
G01X4782012Y102062D01*
G01X4785822Y103447D01*
G01X4790324Y104833D01*
G01X4793788Y105872D01*
G01X4801408Y107257D01*
G01X4809028Y107604D01*
G01X4818726Y107257D01*
G01X4822883Y106564D01*
G01X4826000Y105872D01*
G01X4830156Y104833D01*
G01X4833274Y103447D01*
G01X4836044Y102062D01*
G01X4838469Y100676D01*
G01X4840201Y99637D01*
G01X4842626Y97559D01*
G01X4844704Y94788D01*
G01X4846436Y92364D01*
G01X4847821Y89246D01*
G01X4848860Y86129D01*
G01X4849553Y83012D01*
G01X4849899Y79548D01*
G01X4849899Y76777D01*
G01X4849553Y74353D01*
G01X4849206Y70543D01*
G01X4848167Y65694D01*
G01X4846782Y61884D01*
G01X4845396Y58766D01*
G01X4843664Y55649D01*
G01X4841586Y52532D01*
G01X4839508Y50107D01*
G01X4836737Y46644D01*
G01X4831196Y42487D01*
G01X4829117Y41102D01*
G01X4823576Y38331D01*
G01X4820458Y37292D01*
G01X4818986Y36772D01*
G01X4818726Y35906D01*
G01X4820804Y34521D01*
G01X4823576Y33828D01*
G01X4826000Y33136D01*
G01X4828424Y32096D01*
G01X4831196Y30364D01*
G01X4833620Y28633D01*
G01X4835352Y27247D01*
G01X4837430Y24823D01*
G01X4839508Y21359D01*
G01X4841240Y17549D01*
G01X4842279Y14432D01*
G01X4842626Y8544D01*
G01X4842279Y2656D01*
G01X4841933Y231D01*
G01X4841240Y-3233D01*
G01X4839854Y-7389D01*
G01X4838469Y-10506D01*
G01X4837084Y-13277D01*
G01X4835352Y-16394D01*
G01X4833620Y-19166D01*
G01X4830156Y-23322D01*
G01X4827732Y-25746D01*
G01X4822883Y-29903D01*
G01X4819419Y-31981D01*
G01X4816648Y-33713D01*
G01X4813877Y-35098D01*
G01X4810414Y-36484D01*
G01X4806604Y-37869D01*
G01X4803486Y-38908D01*
G01X4797252Y-40294D01*
G01X4792403Y-40986D01*
G01X4786861Y-41333D01*
G01X4780626Y-41679D01*
G37*
G36*
G01X5426941Y-41679D02*
G01X5424170Y-41679D01*
G01X5421053Y-41333D01*
G01X5416550Y-40986D01*
G01X5413086Y-40294D01*
G01X5409276Y-39254D01*
G01X5405466Y-37869D01*
G01X5400617Y-35444D01*
G01X5398886Y-34059D01*
G01X5396461Y-31634D01*
G01X5394036Y-29556D01*
G01X5392651Y-27478D01*
G01X5390919Y-24361D01*
G01X5389534Y-21244D01*
G01X5388494Y-18473D01*
G01X5387456Y-14316D01*
G01X5386763Y-10506D01*
G01X5386416Y-808D01*
G01X5386528Y2309D01*
G01X5414818Y2309D01*
G01X5415164Y-5657D01*
G01X5415511Y-8082D01*
G01X5416204Y-10853D01*
G01X5417936Y-13970D01*
G01X5420014Y-16394D01*
G01X5422092Y-17780D01*
G01X5424516Y-18473D01*
G01X5424516Y-18473D01*
G01X5426248Y-18819D01*
G01X5430058Y-19166D01*
G01X5435600Y-18473D01*
G01X5439410Y-17087D01*
G01X5442874Y-15009D01*
G01X5445644Y-12931D01*
G01X5448069Y-10506D01*
G01X5451533Y-5311D01*
G01X5452918Y-2540D01*
G01X5454304Y924D01*
G01X5455343Y4041D01*
G01X5456036Y6812D01*
G01X5456728Y12354D01*
G01X5456728Y15817D01*
G01X5456036Y19974D01*
G01X5454650Y23437D01*
G01X5452572Y26208D01*
G01X5450494Y27594D01*
G01X5448069Y28633D01*
G01X5442181Y29326D01*
G01X5435254Y28979D01*
G01X5430404Y27940D01*
G01X5426248Y26554D01*
G01X5422784Y25169D01*
G01X5417936Y22744D01*
G01X5417069Y21792D01*
G01X5416550Y19627D01*
G01X5415857Y15817D01*
G01X5415164Y10276D01*
G01X5414818Y2309D01*
G01X5386528Y2309D01*
G01X5386763Y8890D01*
G01X5387109Y12007D01*
G01X5387456Y15817D01*
G01X5388148Y20666D01*
G01X5388841Y24823D01*
G01X5389534Y28286D01*
G01X5390226Y32443D01*
G01X5390919Y35214D01*
G01X5391612Y38331D01*
G01X5392651Y42487D01*
G01X5393690Y45604D01*
G01X5394383Y48376D01*
G01X5395422Y51493D01*
G01X5396807Y54956D01*
G01X5398193Y58766D01*
G01X5399578Y62230D01*
G01X5403734Y70543D01*
G01X5405120Y72967D01*
G01X5406852Y75738D01*
G01X5408930Y78856D01*
G01X5410662Y81280D01*
G01X5412047Y83358D01*
G01X5413779Y85436D01*
G01X5421399Y93056D01*
G01X5424170Y95134D01*
G01X5426594Y96866D01*
G01X5429712Y98944D01*
G01X5432483Y100676D01*
G01X5437332Y102754D01*
G01X5440103Y103794D01*
G01X5443220Y104833D01*
G01X5446684Y105872D01*
G01X5449801Y106564D01*
G01X5454650Y107257D01*
G01X5461577Y107604D01*
G01X5470583Y107257D01*
G01X5476124Y106564D01*
G01X5479588Y105872D01*
G01X5482706Y105179D01*
G01X5486862Y104140D01*
G01X5489979Y102754D01*
G01X5492057Y101369D01*
G01X5492837Y100070D01*
G01X5493096Y97559D01*
G01X5492750Y93403D01*
G01X5492404Y90978D01*
G01X5491711Y88207D01*
G01X5490672Y85090D01*
G01X5488594Y81973D01*
G01X5485823Y80934D01*
G01X5482706Y81973D01*
G01X5478203Y83358D01*
G01X5474739Y84397D01*
G01X5469197Y85090D01*
G01X5464002Y85436D01*
G01X5458806Y85090D01*
G01X5454650Y84397D01*
G01X5450147Y83358D01*
G01X5447030Y81973D01*
G01X5443566Y80241D01*
G01X5441142Y78509D01*
G01X5439410Y77470D01*
G01X5437678Y76084D01*
G01X5434214Y72621D01*
G01X5432829Y70889D01*
G01X5431097Y68464D01*
G01X5429019Y65001D01*
G01X5427287Y62230D01*
G01X5425902Y59113D01*
G01X5424516Y55649D01*
G01X5422438Y49414D01*
G01X5422092Y46644D01*
G01X5422871Y45778D01*
G01X5424516Y45951D01*
G01X5427634Y47336D01*
G01X5430404Y48376D01*
G01X5433522Y49414D01*
G01X5437332Y50454D01*
G01X5440796Y51146D01*
G01X5448416Y51493D01*
G01X5458114Y51146D01*
G01X5463309Y50107D01*
G01X5466426Y49068D01*
G01X5469197Y48029D01*
G01X5472661Y46297D01*
G01X5475086Y44566D01*
G01X5476817Y43180D01*
G01X5478549Y41448D01*
G01X5480627Y38677D01*
G01X5482706Y35214D01*
G01X5484091Y32096D01*
G01X5485130Y28286D01*
G01X5485823Y22744D01*
G01X5485823Y18588D01*
G01X5485130Y11661D01*
G01X5484437Y7851D01*
G01X5483398Y2656D01*
G01X5482013Y-1847D01*
G01X5480627Y-5657D01*
G01X5476471Y-13970D01*
G01X5475086Y-16394D01*
G01X5473700Y-18473D01*
G01X5469544Y-23668D01*
G01X5463656Y-29556D01*
G01X5460192Y-31981D01*
G01X5457074Y-34059D01*
G01X5453957Y-35791D01*
G01X5450494Y-37176D01*
G01X5446684Y-38562D01*
G01X5443566Y-39601D01*
G01X5436639Y-40986D01*
G01X5432483Y-41333D01*
G01X5426941Y-41679D01*
G37*
G36*
G01X4903239Y-41679D02*
G01X4901161Y-41679D01*
G01X4897697Y-41333D01*
G01X4893541Y-40986D01*
G01X4889731Y-40294D01*
G01X4885574Y-39254D01*
G01X4882804Y-38216D01*
G01X4879686Y-36830D01*
G01X4876223Y-34752D01*
G01X4873798Y-32674D01*
G01X4869642Y-28517D01*
G01X4867564Y-25400D01*
G01X4866178Y-22976D01*
G01X4865139Y-20551D01*
G01X4864100Y-17780D01*
G01X4863061Y-13970D01*
G01X4862368Y-10506D01*
G01X4861676Y-4272D01*
G01X4861329Y577D01*
G01X4861601Y4387D01*
G01X4890424Y4387D01*
G01X4890770Y-1501D01*
G01X4891463Y-6350D01*
G01X4892502Y-9814D01*
G01X4894234Y-13277D01*
G01X4896312Y-15702D01*
G01X4898390Y-17087D01*
G01X4900814Y-17780D01*
G01X4900814Y-17780D01*
G01X4902546Y-18126D01*
G01X4906010Y-18473D01*
G01X4911552Y-17780D01*
G01X4915708Y-16394D01*
G01X4918133Y-15009D01*
G01X4919864Y-13970D01*
G01X4922289Y-11892D01*
G01X4924367Y-9121D01*
G01X4925753Y-7389D01*
G01X4927138Y-4964D01*
G01X4928524Y-2194D01*
G01X4930602Y2656D01*
G01X4931641Y5426D01*
G01X4934758Y14778D01*
G01X4935797Y18242D01*
G01X4936836Y22744D01*
G01X4937876Y26901D01*
G01X4938568Y30364D01*
G01X4939261Y34521D01*
G01X4939954Y37984D01*
G01X4941339Y47683D01*
G01X4942032Y54610D01*
G01X4942378Y61884D01*
G01X4942032Y69157D01*
G01X4941339Y72621D01*
G01X4940300Y76431D01*
G01X4939261Y78856D01*
G01X4937183Y81280D01*
G01X4933719Y83358D01*
G01X4930948Y84397D01*
G01X4927484Y84744D01*
G01X4924021Y84397D01*
G01X4920904Y83704D01*
G01X4917786Y82666D01*
G01X4915362Y81626D01*
G01X4913284Y80241D01*
G01X4909820Y76777D01*
G01X4908088Y74353D01*
G01X4906356Y71582D01*
G01X4904971Y69157D01*
G01X4902893Y64308D01*
G01X4900814Y58766D01*
G01X4899776Y55649D01*
G01X4897697Y48722D01*
G01X4896658Y44219D01*
G01X4895619Y40756D01*
G01X4894234Y33828D01*
G01X4892848Y25516D01*
G01X4892156Y20666D01*
G01X4891463Y15124D01*
G01X4890770Y8197D01*
G01X4890424Y4387D01*
G01X4861601Y4387D01*
G01X4861676Y5426D01*
G01X4862022Y9236D01*
G01X4862368Y15124D01*
G01X4863061Y20666D01*
G01X4863754Y25516D01*
G01X4864446Y29672D01*
G01X4865832Y36599D01*
G01X4866524Y39370D01*
G01X4867217Y42487D01*
G01X4868256Y46990D01*
G01X4869642Y51839D01*
G01X4871027Y56342D01*
G01X4873798Y63962D01*
G01X4875184Y67079D01*
G01X4877262Y71928D01*
G01X4880379Y78163D01*
G01X4882457Y81626D01*
G01X4884536Y84744D01*
G01X4886960Y87861D01*
G01X4889038Y90632D01*
G01X4894234Y95827D01*
G01X4895966Y97213D01*
G01X4898390Y98944D01*
G01X4901161Y100676D01*
G01X4905317Y102754D01*
G01X4908434Y104140D01*
G01X4912937Y105526D01*
G01X4916401Y106564D01*
G01X4921250Y107257D01*
G01X4929216Y107604D01*
G01X4937183Y107257D01*
G01X4942032Y106564D01*
G01X4945149Y105872D01*
G01X4948613Y104833D01*
G01X4951730Y103447D01*
G01X4955194Y101716D01*
G01X4957618Y99984D01*
G01X4959350Y98944D01*
G01X4960736Y97559D01*
G01X4962121Y95827D01*
G01X4963853Y94096D01*
G01X4965238Y92017D01*
G01X4966624Y89593D01*
G01X4968009Y86476D01*
G01X4969048Y83704D01*
G01X4970434Y78163D01*
G01X4971126Y72621D01*
G01X4971473Y64654D01*
G01X4971126Y56688D01*
G01X4970434Y49068D01*
G01X4969741Y43526D01*
G01X4968356Y35214D01*
G01X4967663Y31404D01*
G01X4966624Y26208D01*
G01X4965584Y22744D01*
G01X4964892Y19281D01*
G01X4963853Y15471D01*
G01X4961774Y8544D01*
G01X4958657Y231D01*
G01X4957618Y-2194D01*
G01X4951730Y-13970D01*
G01X4949652Y-17087D01*
G01X4947920Y-19858D01*
G01X4946188Y-21936D01*
G01X4943417Y-25400D01*
G01X4941686Y-27132D01*
G01X4938222Y-29903D01*
G01X4935797Y-31981D01*
G01X4932334Y-34059D01*
G01X4929563Y-35791D01*
G01X4926792Y-37176D01*
G01X4922982Y-38562D01*
G01X4919864Y-39601D01*
G01X4912937Y-40986D01*
G01X4908434Y-41333D01*
G01X4903239Y-41679D01*
G37*
G36*
G01X4964892Y-71813D02*
G01X4958657Y-71120D01*
G01X4957445Y-70167D01*
G01X4957272Y-68696D01*
G01X4958657Y-65232D01*
G01X4962121Y-59690D01*
G01X4964199Y-56573D01*
G01X4967663Y-51031D01*
G01X4969741Y-47914D01*
G01X4971819Y-44450D01*
G01X4973897Y-41333D01*
G01X4975629Y-38562D01*
G01X4977014Y-36484D01*
G01X4978054Y-33713D01*
G01X4978746Y-30596D01*
G01X4980132Y-23668D01*
G01X4980824Y-19858D01*
G01X4981864Y-15702D01*
G01X4983249Y-12584D01*
G01X4985674Y-9467D01*
G01X4989484Y-7736D01*
G01X4993986Y-7043D01*
G01X4999528Y-7043D01*
G01X5005070Y-7736D01*
G01X5008880Y-9121D01*
G01X5010958Y-11546D01*
G01X5011651Y-14663D01*
G01X5011304Y-17434D01*
G01X5010958Y-19858D01*
G01X5010266Y-23668D01*
G01X5008880Y-28171D01*
G01X5007494Y-31981D01*
G01X5006109Y-34752D01*
G01X5004724Y-37176D01*
G01X5003338Y-39254D01*
G01X5002299Y-40986D01*
G01X5000914Y-42718D01*
G01X4996757Y-47567D01*
G01X4995026Y-49299D01*
G01X4992254Y-52763D01*
G01X4988791Y-56226D01*
G01X4986020Y-59690D01*
G01X4984288Y-61422D01*
G01X4981517Y-64886D01*
G01X4978054Y-68349D01*
G01X4975976Y-69734D01*
G01X4973204Y-70774D01*
G01X4970434Y-71466D01*
G01X4964892Y-71813D01*
G37*
G36*
G01X5078499Y-39254D02*
G01X5034511Y-38908D01*
G01X5032433Y-37523D01*
G01X5030701Y-34752D01*
G01X5030701Y-31981D01*
G01X5031047Y-29210D01*
G01X5031740Y-25054D01*
G01X5033126Y-20897D01*
G01X5034511Y-17780D01*
G01X5037282Y-12931D01*
G01X5039014Y-10853D01*
G01X5040746Y-9121D01*
G01X5044902Y-5657D01*
G01X5047326Y-3233D01*
G01X5050097Y-1154D01*
G01X5051829Y577D01*
G01X5055986Y4041D01*
G01X5058410Y6466D01*
G01X5061181Y8544D01*
G01X5062913Y10276D01*
G01X5067762Y14432D01*
G01X5069494Y16164D01*
G01X5072957Y18934D01*
G01X5076421Y22398D01*
G01X5079884Y25169D01*
G01X5086812Y32096D01*
G01X5090276Y36253D01*
G01X5092700Y38677D01*
G01X5096856Y44219D01*
G01X5099281Y47683D01*
G01X5101013Y50454D01*
G01X5102398Y53224D01*
G01X5103784Y56342D01*
G01X5104823Y59459D01*
G01X5105516Y62230D01*
G01X5105862Y65001D01*
G01X5105516Y69850D01*
G01X5104476Y74006D01*
G01X5102744Y76777D01*
G01X5099974Y79202D01*
G01X5096856Y80587D01*
G01X5091314Y81280D01*
G01X5085426Y80934D01*
G01X5081963Y80241D01*
G01X5078153Y79202D01*
G01X5073996Y77816D01*
G01X5070879Y76431D01*
G01X5062566Y72274D01*
G01X5059449Y70889D01*
G01X5058064Y70629D01*
G01X5056678Y71236D01*
G01X5055639Y72534D01*
G01X5055293Y74353D01*
G01X5055639Y78856D01*
G01X5056332Y83012D01*
G01X5057717Y88554D01*
G01X5058756Y91671D01*
G01X5060834Y94788D01*
G01X5063259Y97213D01*
G01X5065337Y98598D01*
G01X5068108Y99984D01*
G01X5071226Y101369D01*
G01X5074689Y102754D01*
G01X5081963Y105179D01*
G01X5088197Y106564D01*
G01X5093046Y107257D01*
G01X5100666Y107604D01*
G01X5108979Y107257D01*
G01X5113136Y106564D01*
G01X5116599Y105872D01*
G01X5119370Y105179D01*
G01X5122141Y104140D01*
G01X5127683Y101369D01*
G01X5130107Y99984D01*
G01X5132186Y98252D01*
G01X5135649Y94788D01*
G01X5137381Y92364D01*
G01X5139113Y89246D01*
G01X5140498Y85090D01*
G01X5141537Y81626D01*
G01X5141884Y76084D01*
G01X5141537Y70543D01*
G01X5140844Y66386D01*
G01X5139806Y61191D01*
G01X5138420Y57034D01*
G01X5137034Y53917D01*
G01X5134264Y48376D01*
G01X5132532Y45604D01*
G01X5130454Y42487D01*
G01X5129068Y40063D01*
G01X5122141Y31404D01*
G01X5104130Y13393D01*
G01X5101359Y11314D01*
G01X5099627Y9583D01*
G01X5087158Y-808D01*
G01X5082309Y-4964D01*
G01X5073996Y-11892D01*
G01X5072264Y-13277D01*
G01X5070879Y-14663D01*
G01X5077547Y-15442D01*
G01X5098242Y-15702D01*
G01X5119370Y-16048D01*
G01X5127336Y-17087D01*
G01X5128376Y-18646D01*
G01X5128722Y-20551D01*
G01X5128376Y-23668D01*
G01X5127683Y-27132D01*
G01X5126644Y-31634D01*
G01X5124912Y-35444D01*
G01X5122834Y-38216D01*
G01X5111231Y-38995D01*
G01X5078499Y-39254D01*
G37*
G36*
G01X5194184Y-41679D02*
G01X5192106Y-41679D01*
G01X5188643Y-41333D01*
G01X5184486Y-40986D01*
G01X5181023Y-40294D01*
G01X5176520Y-39254D01*
G01X5172710Y-37869D01*
G01X5169246Y-36137D01*
G01X5166129Y-34059D01*
G01X5163704Y-32327D01*
G01X5161280Y-29903D01*
G01X5158856Y-26439D01*
G01X5157124Y-23668D01*
G01X5155738Y-20551D01*
G01X5154353Y-16048D01*
G01X5153314Y-12584D01*
G01X5152621Y-7043D01*
G01X5152274Y1616D01*
G01X5152413Y5080D01*
G01X5181369Y5080D01*
G01X5181716Y-3579D01*
G01X5182754Y-8774D01*
G01X5184486Y-12584D01*
G01X5187257Y-15702D01*
G01X5190721Y-17434D01*
G01X5190721Y-17434D01*
G01X5192799Y-18126D01*
G01X5195916Y-18473D01*
G01X5199726Y-18126D01*
G01X5202844Y-17434D01*
G01X5205961Y-16394D01*
G01X5208386Y-15356D01*
G01X5210464Y-13970D01*
G01X5214620Y-9814D01*
G01X5216698Y-6696D01*
G01X5218084Y-4272D01*
G01X5219469Y-1501D01*
G01X5220854Y1616D01*
G01X5222933Y7158D01*
G01X5225011Y13393D01*
G01X5226050Y16856D01*
G01X5227089Y21359D01*
G01X5228128Y24823D01*
G01X5229514Y31750D01*
G01X5230899Y40063D01*
G01X5231592Y44912D01*
G01X5232284Y50454D01*
G01X5233324Y61884D01*
G01X5232977Y65694D01*
G01X5232284Y71236D01*
G01X5231592Y74353D01*
G01X5230553Y77470D01*
G01X5229514Y79548D01*
G01X5228128Y81280D01*
G01X5226050Y82666D01*
G01X5223626Y83704D01*
G01X5221201Y84397D01*
G01X5218084Y84744D01*
G01X5214966Y84397D01*
G01X5211503Y83704D01*
G01X5207346Y82319D01*
G01X5204922Y80587D01*
G01X5203190Y79548D01*
G01X5201804Y78163D01*
G01X5200419Y76431D01*
G01X5198687Y74353D01*
G01X5195224Y68118D01*
G01X5193838Y65001D01*
G01X5192453Y61537D01*
G01X5191067Y57727D01*
G01X5189682Y53224D01*
G01X5188296Y48376D01*
G01X5187257Y44912D01*
G01X5185872Y38677D01*
G01X5184486Y31057D01*
G01X5183101Y22744D01*
G01X5182408Y17896D01*
G01X5181716Y11661D01*
G01X5181369Y5080D01*
G01X5152413Y5080D01*
G01X5152621Y10276D01*
G01X5153314Y17203D01*
G01X5153660Y19627D01*
G01X5154006Y22744D01*
G01X5155392Y31057D01*
G01X5156777Y37984D01*
G01X5157470Y40756D01*
G01X5158163Y44219D01*
G01X5159202Y48029D01*
G01X5161280Y54956D01*
G01X5163358Y61191D01*
G01X5164397Y63962D01*
G01X5165436Y66386D01*
G01X5166822Y69157D01*
G01X5168207Y72621D01*
G01X5169593Y75392D01*
G01X5170978Y77816D01*
G01X5172710Y80934D01*
G01X5176866Y87168D01*
G01X5178944Y89593D01*
G01X5181716Y93056D01*
G01X5183447Y94442D01*
G01X5185872Y96520D01*
G01X5188643Y98598D01*
G01X5190721Y99984D01*
G01X5195570Y102754D01*
G01X5198341Y103794D01*
G01X5204576Y105872D01*
G01X5207346Y106564D01*
G01X5212196Y107257D01*
G01X5220162Y107604D01*
G01X5228128Y107257D01*
G01X5232284Y106564D01*
G01X5237480Y105526D01*
G01X5241290Y104140D01*
G01X5244061Y102754D01*
G01X5246832Y101023D01*
G01X5249256Y99291D01*
G01X5250988Y97906D01*
G01X5253413Y95481D01*
G01X5255837Y92017D01*
G01X5257569Y89246D01*
G01X5258608Y86476D01*
G01X5259647Y83358D01*
G01X5260686Y79548D01*
G01X5261379Y76084D01*
G01X5262072Y68464D01*
G01X5262418Y65347D01*
G01X5262072Y62230D01*
G01X5261726Y57727D01*
G01X5261379Y51146D01*
G01X5260686Y45604D01*
G01X5259994Y40756D01*
G01X5259301Y36599D01*
G01X5257916Y29672D01*
G01X5257223Y26901D01*
G01X5256530Y23437D01*
G01X5255491Y18934D01*
G01X5254452Y15817D01*
G01X5253759Y12700D01*
G01X5252720Y9236D01*
G01X5250642Y3694D01*
G01X5249256Y231D01*
G01X5247871Y-2886D01*
G01X5246832Y-5311D01*
G01X5245446Y-8082D01*
G01X5243714Y-11199D01*
G01X5241983Y-14663D01*
G01X5239904Y-17780D01*
G01X5238173Y-20204D01*
G01X5235402Y-23668D01*
G01X5229514Y-29556D01*
G01X5226743Y-31634D01*
G01X5225011Y-33020D01*
G01X5222586Y-34406D01*
G01X5217044Y-37176D01*
G01X5213581Y-38562D01*
G01X5210810Y-39601D01*
G01X5203883Y-40986D01*
G01X5199380Y-41333D01*
G01X5194184Y-41679D01*
G37*
G36*
G01X5309870Y-39254D02*
G01X5265882Y-38908D01*
G01X5263804Y-37176D01*
G01X5262764Y-35704D01*
G01X5262418Y-34059D01*
G01X5262764Y-29210D01*
G01X5263804Y-24014D01*
G01X5265189Y-19858D01*
G01X5266921Y-16394D01*
G01X5268653Y-13624D01*
G01X5270384Y-11546D01*
G01X5275580Y-6350D01*
G01X5279736Y-2886D01*
G01X5282161Y-462D01*
G01X5284932Y1616D01*
G01X5286664Y3348D01*
G01X5290820Y6812D01*
G01X5293244Y9236D01*
G01X5296016Y11314D01*
G01X5297747Y13046D01*
G01X5302596Y17203D01*
G01X5304328Y18934D01*
G01X5307792Y21706D01*
G01X5321646Y35560D01*
G01X5325110Y39716D01*
G01X5327188Y42141D01*
G01X5328920Y44566D01*
G01X5331691Y48722D01*
G01X5333076Y51146D01*
G01X5334462Y53917D01*
G01X5335847Y57034D01*
G01X5336886Y60152D01*
G01X5337233Y66040D01*
G01X5336886Y71928D01*
G01X5336194Y74353D01*
G01X5334808Y76431D01*
G01X5333076Y78163D01*
G01X5330652Y79894D01*
G01X5327881Y80934D01*
G01X5321993Y81280D01*
G01X5314719Y80587D01*
G01X5311256Y79548D01*
G01X5308484Y78856D01*
G01X5305714Y77816D01*
G01X5299479Y75046D01*
G01X5293937Y72274D01*
G01X5290820Y70889D01*
G01X5289088Y70629D01*
G01X5288049Y71236D01*
G01X5287010Y73314D01*
G01X5287010Y76084D01*
G01X5287703Y80934D01*
G01X5288742Y86476D01*
G01X5290127Y90632D01*
G01X5291513Y93403D01*
G01X5292898Y95481D01*
G01X5294976Y97213D01*
G01X5298094Y98944D01*
G01X5301557Y100676D01*
G01X5304674Y102062D01*
G01X5308484Y103447D01*
G01X5313334Y104833D01*
G01X5316797Y105872D01*
G01X5324417Y107257D01*
G01X5332384Y107604D01*
G01X5340350Y107257D01*
G01X5343121Y106911D01*
G01X5347277Y106218D01*
G01X5351780Y104833D01*
G01X5355590Y103447D01*
G01X5359054Y101716D01*
G01X5363903Y98252D01*
G01X5366327Y96174D01*
G01X5367713Y94442D01*
G01X5369098Y92364D01*
G01X5370484Y89939D01*
G01X5371869Y86476D01*
G01X5372908Y83012D01*
G01X5373601Y77470D01*
G01X5373601Y75392D01*
G01X5372908Y67772D01*
G01X5372216Y64308D01*
G01X5371176Y60498D01*
G01X5370137Y57381D01*
G01X5369098Y54610D01*
G01X5365981Y48376D01*
G01X5362517Y42834D01*
G01X5360093Y39370D01*
G01X5357322Y35906D01*
G01X5355244Y33136D01*
G01X5353512Y31404D01*
G01X5349356Y26554D01*
G01X5338964Y16164D01*
G01X5335501Y13393D01*
G01X5333769Y11661D01*
G01X5328920Y7504D01*
G01X5325456Y4734D01*
G01X5320607Y577D01*
G01X5312294Y-6350D01*
G01X5305021Y-12584D01*
G01X5302943Y-14663D01*
G01X5309697Y-15442D01*
G01X5330652Y-15702D01*
G01X5351867Y-16048D01*
G01X5359400Y-17087D01*
G01X5360439Y-19512D01*
G01X5360439Y-21244D01*
G01X5360093Y-23322D01*
G01X5359746Y-25746D01*
G01X5359054Y-28864D01*
G01X5358014Y-32327D01*
G01X5356976Y-35098D01*
G01X5354897Y-37869D01*
G01X5342774Y-38908D01*
G01X5309870Y-39254D01*
G37*
G54D10*
G01X8924059Y-1746821D02*
G01X8859035Y-1746821D01*
G01X8924059Y-1790255D02*
G01X8859035Y-1790255D01*
G01X8893071Y-1746821D02*
G01X8893071Y-1790255D01*
G01X8908565Y-1823529D02*
G01X8911613Y-1823529D01*
G01X8917963Y-1826577D01*
G01X8921011Y-1829625D01*
G01X8924059Y-1835721D01*
G01X8924059Y-1848167D01*
G01X8921011Y-1854517D01*
G01X8917963Y-1857565D01*
G01X8911613Y-1860613D01*
G01X8905517Y-1860613D01*
G01X8899421Y-1857565D01*
G01X8890023Y-1851215D01*
G01X8859035Y-1820481D01*
G01X8859035Y-1863661D01*
G01X4479768Y-5732775D02*
G01X4544792Y-5732775D01*
G01X4479768Y-5689341D02*
G01X4544792Y-5689341D01*
G01X4510756Y-5732775D02*
G01X4510756Y-5689341D01*
G01X4479768Y-5628381D02*
G01X4522948Y-5659115D01*
G01X4522948Y-5612887D01*
G01X4479768Y-5628381D02*
G01X4544792Y-5628381D01*
G01X5324632Y-1912625D02*
G01X5259608Y-1912625D01*
G01X5324632Y-1956059D02*
G01X5259608Y-1956059D01*
G01X5293644Y-1912625D02*
G01X5293644Y-1956059D01*
G01X5324632Y-2023369D02*
G01X5324632Y-1992381D01*
G01X5296946Y-1989333D01*
G01X5299994Y-1992381D01*
G01X5303042Y-2001525D01*
G01X5303042Y-2010923D01*
G01X5299994Y-2020321D01*
G01X5293644Y-2026417D01*
G01X5284500Y-2029465D01*
G01X5278150Y-2029465D01*
G01X5269006Y-2026417D01*
G01X5262656Y-2020321D01*
G01X5259608Y-2010923D01*
G01X5259608Y-2001525D01*
G01X5262656Y-1992381D01*
G01X5265958Y-1989333D01*
G01X5272054Y-1986285D01*
G01X6608980Y-8065534D02*
G01X6608980Y-8019052D01*
G01X6605932Y-8009908D01*
G01X6599582Y-8003558D01*
G01X6590438Y-8000510D01*
G01X6584088Y-8000510D01*
G01X6574944Y-8003558D01*
G01X6568848Y-8009908D01*
G01X6565546Y-8019052D01*
G01X6565546Y-8065534D01*
G01X6504586Y-8065534D02*
G01X6535320Y-8022354D01*
G01X6489092Y-8022354D01*
G01X6504586Y-8065534D02*
G01X6504586Y-8000510D01*
G01X5910123Y-583514D02*
G01X5910123Y-537032D01*
G01X5907075Y-527888D01*
G01X5900725Y-521538D01*
G01X5891581Y-518490D01*
G01X5885231Y-518490D01*
G01X5876087Y-521538D01*
G01X5869991Y-527888D01*
G01X5866689Y-537032D01*
G01X5866689Y-583514D01*
G01X5799379Y-583514D02*
G01X5830367Y-583514D01*
G01X5833415Y-555828D01*
G01X5830367Y-558876D01*
G01X5821223Y-561924D01*
G01X5811825Y-561924D01*
G01X5802427Y-558876D01*
G01X5796331Y-552526D01*
G01X5793283Y-543382D01*
G01X5793283Y-537032D01*
G01X5796331Y-527888D01*
G01X5802427Y-521538D01*
G01X5811825Y-518490D01*
G01X5821223Y-518490D01*
G01X5830367Y-521538D01*
G01X5833415Y-524840D01*
G01X5836463Y-530936D01*
G01X5360620Y-937566D02*
G01X5360620Y-984048D01*
G01X5363668Y-993192D01*
G01X5370018Y-999542D01*
G01X5379162Y-1002590D01*
G01X5385512Y-1002590D01*
G01X5394656Y-999542D01*
G01X5400752Y-993192D01*
G01X5404054Y-984048D01*
G01X5404054Y-937566D01*
G01X5474412Y-959156D02*
G01X5471364Y-968554D01*
G01X5465014Y-974650D01*
G01X5455870Y-977698D01*
G01X5452822Y-977698D01*
G01X5443424Y-974650D01*
G01X5437328Y-968554D01*
G01X5434280Y-959156D01*
G01X5434280Y-956108D01*
G01X5437328Y-946710D01*
G01X5443424Y-940614D01*
G01X5452822Y-937566D01*
G01X5455870Y-937566D01*
G01X5465014Y-940614D01*
G01X5471364Y-946710D01*
G01X5474412Y-959156D01*
G01X5474412Y-974650D01*
G01X5471364Y-990144D01*
G01X5465014Y-999542D01*
G01X5455870Y-1002590D01*
G01X5449520Y-1002590D01*
G01X5440376Y-999542D01*
G01X5437328Y-993192D01*
G01X5807232Y-1887624D02*
G01X5760750Y-1887624D01*
G01X5751606Y-1890672D01*
G01X5745256Y-1897022D01*
G01X5742208Y-1906166D01*
G01X5742208Y-1912516D01*
G01X5745256Y-1921660D01*
G01X5751606Y-1927756D01*
G01X5760750Y-1931058D01*
G01X5807232Y-1931058D01*
G01X5794786Y-1961284D02*
G01X5798088Y-1967380D01*
G01X5807232Y-1976524D01*
G01X5742208Y-1976524D01*
G01X5794786Y-2006750D02*
G01X5798088Y-2012846D01*
G01X5807232Y-2021990D01*
G01X5742208Y-2021990D01*
G01X8372632Y-1900324D02*
G01X8326150Y-1900324D01*
G01X8317006Y-1903372D01*
G01X8310656Y-1909722D01*
G01X8307608Y-1918866D01*
G01X8307608Y-1925216D01*
G01X8310656Y-1934360D01*
G01X8317006Y-1940456D01*
G01X8326150Y-1943758D01*
G01X8372632Y-1943758D01*
G01X8360186Y-1973984D02*
G01X8363488Y-1980080D01*
G01X8372632Y-1989224D01*
G01X8307608Y-1989224D01*
G01X8357138Y-2022498D02*
G01X8360186Y-2022498D01*
G01X8366536Y-2025546D01*
G01X8369584Y-2028594D01*
G01X8372632Y-2034690D01*
G01X8372632Y-2047136D01*
G01X8369584Y-2053486D01*
G01X8366536Y-2056534D01*
G01X8360186Y-2059582D01*
G01X8354090Y-2059582D01*
G01X8347994Y-2056534D01*
G01X8338596Y-2050184D01*
G01X8307608Y-2019450D01*
G01X8307608Y-2062630D01*
G01X7597546Y-6319502D02*
G01X7603896Y-6316454D01*
G01X7609992Y-6310104D01*
G01X7613040Y-6304008D01*
G01X7613040Y-6291562D01*
G01X7609992Y-6285466D01*
G01X7603896Y-6279116D01*
G01X7597546Y-6276068D01*
G01X7588402Y-6273020D01*
G01X7572908Y-6273020D01*
G01X7563510Y-6276068D01*
G01X7557414Y-6279116D01*
G01X7551064Y-6285466D01*
G01X7548016Y-6291562D01*
G01X7548016Y-6304008D01*
G01X7551064Y-6310104D01*
G01X7557414Y-6316454D01*
G01X7563510Y-6319502D01*
G01X7600594Y-6349728D02*
G01X7603896Y-6355824D01*
G01X7613040Y-6364968D01*
G01X7548016Y-6364968D01*
G01X7686149Y-6561889D02*
G01X7679799Y-6564937D01*
G01X7673703Y-6571287D01*
G01X7670655Y-6577383D01*
G01X7670655Y-6589829D01*
G01X7673703Y-6595925D01*
G01X7679799Y-6602275D01*
G01X7686149Y-6605323D01*
G01X7695293Y-6608371D01*
G01X7710787Y-6608371D01*
G01X7720185Y-6605323D01*
G01X7726281Y-6602275D01*
G01X7732631Y-6595925D01*
G01X7735679Y-6589829D01*
G01X7735679Y-6577383D01*
G01X7732631Y-6571287D01*
G01X7726281Y-6564937D01*
G01X7720185Y-6561889D01*
G01X7686149Y-6528615D02*
G01X7683101Y-6528615D01*
G01X7676751Y-6525567D01*
G01X7673703Y-6522519D01*
G01X7670655Y-6516423D01*
G01X7670655Y-6503977D01*
G01X7673703Y-6497627D01*
G01X7676751Y-6494579D01*
G01X7683101Y-6491531D01*
G01X7689197Y-6491531D01*
G01X7695293Y-6494579D01*
G01X7704691Y-6500929D01*
G01X7735679Y-6531663D01*
G01X7735679Y-6488483D01*
G01X8212889Y-7045851D02*
G01X8215937Y-7052201D01*
G01X8222287Y-7058297D01*
G01X8228383Y-7061345D01*
G01X8240829Y-7061345D01*
G01X8246925Y-7058297D01*
G01X8253275Y-7052201D01*
G01X8256323Y-7045851D01*
G01X8259371Y-7036707D01*
G01X8259371Y-7021213D01*
G01X8256323Y-7011815D01*
G01X8253275Y-7005719D01*
G01X8246925Y-6999369D01*
G01X8240829Y-6996321D01*
G01X8228383Y-6996321D01*
G01X8222287Y-6999369D01*
G01X8215937Y-7005719D01*
G01X8212889Y-7011815D01*
G01X8176567Y-7061345D02*
G01X8142531Y-7061345D01*
G01X8161073Y-7036707D01*
G01X8151929Y-7036707D01*
G01X8145579Y-7033659D01*
G01X8142531Y-7030357D01*
G01X8139483Y-7021213D01*
G01X8139483Y-7014863D01*
G01X8142531Y-7005719D01*
G01X8148627Y-6999369D01*
G01X8158025Y-6996321D01*
G01X8167423Y-6996321D01*
G01X8176567Y-6999369D01*
G01X8179615Y-7002671D01*
G01X8182663Y-7008767D01*
G01X8447080Y-6092822D02*
G01X8440730Y-6095870D01*
G01X8434634Y-6102220D01*
G01X8431586Y-6108316D01*
G01X8431586Y-6120762D01*
G01X8434634Y-6126858D01*
G01X8440730Y-6133208D01*
G01X8447080Y-6136256D01*
G01X8456224Y-6139304D01*
G01X8471718Y-6139304D01*
G01X8481116Y-6136256D01*
G01X8487212Y-6133208D01*
G01X8493562Y-6126858D01*
G01X8496610Y-6120762D01*
G01X8496610Y-6108316D01*
G01X8493562Y-6102220D01*
G01X8487212Y-6095870D01*
G01X8481116Y-6092822D01*
G01X8431586Y-6031862D02*
G01X8474766Y-6062596D01*
G01X8474766Y-6016368D01*
G01X8431586Y-6031862D02*
G01X8496610Y-6031862D01*
G01X8217586Y-6799123D02*
G01X8282610Y-6799123D01*
G01X8282610Y-6799123D02*
G01X8282610Y-6762039D01*
G01X8217586Y-6731813D02*
G01X8282610Y-6731813D01*
G01X8217586Y-6731813D02*
G01X8217586Y-6691681D01*
G01X8248574Y-6731813D02*
G01X8248574Y-6707175D01*
G01X8282610Y-6731813D02*
G01X8282610Y-6691681D01*
G01X8217586Y-6661455D02*
G01X8282610Y-6661455D01*
G01X8217586Y-6661455D02*
G01X8217586Y-6639865D01*
G01X8220634Y-6630721D01*
G01X8226730Y-6624371D01*
G01X8233080Y-6621323D01*
G01X8242224Y-6618275D01*
G01X8257718Y-6618275D01*
G01X8267116Y-6621323D01*
G01X8273212Y-6624371D01*
G01X8279562Y-6630721D01*
G01X8282610Y-6639865D01*
G01X8282610Y-6661455D01*
G01X8230032Y-6588049D02*
G01X8226730Y-6581953D01*
G01X8217586Y-6572809D01*
G01X8282610Y-6572809D01*
G01X8829314Y-6579791D02*
G01X8764290Y-6579791D01*
G01X8829314Y-6579791D02*
G01X8829314Y-6607731D01*
G01X8826266Y-6616875D01*
G01X8823218Y-6619923D01*
G01X8816868Y-6623225D01*
G01X8810772Y-6623225D01*
G01X8804676Y-6619923D01*
G01X8801628Y-6616875D01*
G01X8798326Y-6607731D01*
G01X8798326Y-6579791D01*
G01X8798326Y-6601381D02*
G01X8764290Y-6623225D01*
G01X8816868Y-6653451D02*
G01X8820170Y-6659547D01*
G01X8829314Y-6668691D01*
G01X8764290Y-6668691D01*
G01X6218020Y-6069566D02*
G01X6218020Y-6116048D01*
G01X6221068Y-6125192D01*
G01X6227418Y-6131542D01*
G01X6236562Y-6134590D01*
G01X6242912Y-6134590D01*
G01X6252056Y-6131542D01*
G01X6258152Y-6125192D01*
G01X6261454Y-6116048D01*
G01X6261454Y-6069566D01*
G01X6291680Y-6082012D02*
G01X6297776Y-6078710D01*
G01X6306920Y-6069566D01*
G01X6306920Y-6134590D01*
G01X5245080Y-7621334D02*
G01X5245080Y-7574852D01*
G01X5242032Y-7565708D01*
G01X5235682Y-7559358D01*
G01X5226538Y-7556310D01*
G01X5220188Y-7556310D01*
G01X5211044Y-7559358D01*
G01X5204948Y-7565708D01*
G01X5201646Y-7574852D01*
G01X5201646Y-7621334D01*
G01X5168372Y-7605840D02*
G01X5168372Y-7608888D01*
G01X5165324Y-7615238D01*
G01X5162276Y-7618286D01*
G01X5156180Y-7621334D01*
G01X5143734Y-7621334D01*
G01X5137384Y-7618286D01*
G01X5134336Y-7615238D01*
G01X5131288Y-7608888D01*
G01X5131288Y-7602792D01*
G01X5134336Y-7596696D01*
G01X5140686Y-7587298D01*
G01X5171420Y-7556310D01*
G01X5128240Y-7556310D01*
G04 Text End*

G04 PolygonModel Start*
G54D11*
G01X8811798Y-2108505D02*
G01X8561799Y-2108205D01*
G01X8561799Y-1854205D02*
G01X8561799Y-5664197D01*
G01X8811798Y-1854205D02*
G01X8561799Y-1854205D01*
G01X8811798Y-5664197D02*
G01X8811798Y-1854205D01*
G01X8561799Y-5664197D02*
G01X8811798Y-5664197D01*
G01X8295102Y-5409895D02*
G01X8545101Y-5410195D01*
G01X8545101Y-5664195D02*
G01X8545101Y-1854203D01*
G01X8295102Y-5664195D02*
G01X8545101Y-5664195D01*
G01X8295102Y-1854203D02*
G01X8295102Y-5664195D01*
G01X8545101Y-1854203D02*
G01X8295102Y-1854203D01*
G01X4599402Y-5473395D02*
G01X4849401Y-5473695D01*
G01X4849401Y-5727695D02*
G01X4849401Y-1917703D01*
G01X4599402Y-5727695D02*
G01X4849401Y-5727695D01*
G01X4599402Y-1917703D02*
G01X4599402Y-5727695D01*
G01X4849401Y-1917703D02*
G01X4599402Y-1917703D01*
G01X5204998Y-2172005D02*
G01X4954999Y-2171705D01*
G01X4954999Y-1917705D02*
G01X4954999Y-5727697D01*
G01X5204998Y-1917705D02*
G01X4954999Y-1917705D01*
G01X5204998Y-5727697D02*
G01X5204998Y-1917705D01*
G01X4954999Y-5727697D02*
G01X5204998Y-5727697D01*
G54D12*
G01X6777600Y-7731100D02*
G01X6777600Y-7331100D01*
G01X6777600Y-7331100D02*
G01X5617600Y-7331100D01*
G01X5617600Y-7331100D02*
G01X5617600Y-7731100D01*
G01X5617600Y-7731100D02*
G01X6777600Y-7731100D01*
G01X6777600Y-7731100D02*
G01X6777600Y-7331100D01*
G01X6777600Y-7331100D02*
G01X5617600Y-7331100D01*
G01X5617600Y-7331100D02*
G01X5617600Y-7731100D01*
G01X5617600Y-7731100D02*
G01X6777600Y-7731100D01*
G54D13*
G01X6032500Y-292100D02*
G01X6032500Y-546100D01*
G01X6032500Y-546100D02*
G01X5524500Y-546100D01*
G01X5524500Y-546100D02*
G01X5524500Y-292100D01*
G01X5524500Y-292100D02*
G01X6032500Y-292100D01*
G54D14*
G01X6032500Y-292100D02*
G01X6032500Y-546100D01*
G01X5524500Y-546100D02*
G01X5524500Y-292100D01*
G01X5524500Y-546100D02*
G01X6032500Y-546100D01*
G01X5524500Y-292100D02*
G01X6032500Y-292100D01*
G54D12*
G01X5430000Y-1072000D02*
G01X6536900Y-1072000D01*
G01X6536900Y-1072000D02*
G01X7208000Y-1072000D01*
G01X7208000Y-1072000D02*
G01X8281000Y-1072000D01*
G01X8281000Y-1072000D02*
G01X8281000Y-6167000D01*
G01X8281000Y-6167000D02*
G01X5430000Y-6167000D01*
G01X5430000Y-6167000D02*
G01X5430000Y-1072000D01*
G01X5430000Y-1072000D02*
G01X8281000Y-1072000D01*
G01X5430000Y-6167000D02*
G01X5430000Y-1072000D01*
G01X8281000Y-1072000D02*
G01X8281000Y-6167000D01*
G01X5430000Y-6167000D02*
G01X5967000Y-6167000D01*
G01X5967000Y-6167000D02*
G01X7736000Y-6167000D01*
G01X7736000Y-6167000D02*
G01X8281000Y-6167000D01*
G01X5967000Y-6167000D02*
G01X5967000Y-5518000D01*
G01X5967000Y-5518000D02*
G01X5967000Y-4255000D01*
G01X5967000Y-4255000D02*
G01X7736000Y-4255000D01*
G01X7736000Y-4255000D02*
G01X7736000Y-5518000D01*
G01X7736000Y-5518000D02*
G01X7736000Y-6167000D01*
G01X5967000Y-5518000D02*
G01X7736000Y-5518000D01*
G01X7208000Y-1072000D02*
G01X7208000Y-1461000D01*
G01X7208000Y-1461000D02*
G01X6536900Y-1461000D01*
G01X6536900Y-1461000D02*
G01X6536900Y-1072000D01*
G01X5430000Y-1072000D02*
G01X6536900Y-1072000D01*
G01X6536900Y-1072000D02*
G01X7208000Y-1072000D01*
G01X7208000Y-1072000D02*
G01X8281000Y-1072000D01*
G01X5430000Y-6167000D02*
G01X5430000Y-1072000D01*
G01X8281000Y-1072000D02*
G01X8281000Y-6167000D01*
G01X5430000Y-6167000D02*
G01X5967000Y-6167000D01*
G01X5967000Y-6167000D02*
G01X7736000Y-6167000D01*
G01X7736000Y-6167000D02*
G01X8281000Y-6167000D01*
G54D11*
G01X5687598Y-2171700D02*
G01X5437599Y-2171700D01*
G01X5437599Y-1892704D02*
G01X5437599Y-5752696D01*
G01X5687598Y-1892704D02*
G01X5437599Y-1892704D01*
G01X5687598Y-5752696D02*
G01X5687598Y-1892704D01*
G01X5437599Y-5752696D02*
G01X5687598Y-5752696D01*
G01X8252998Y-2184400D02*
G01X8002999Y-2184400D01*
G01X8002999Y-1905404D02*
G01X8002999Y-5765396D01*
G01X8252998Y-1905404D02*
G01X8002999Y-1905404D01*
G01X8252998Y-5765396D02*
G01X8252998Y-1905404D01*
G01X8002999Y-5765396D02*
G01X8252998Y-5765396D01*
G01X7163405Y-6622402D02*
G01X7163405Y-6337402D01*
G01X7493406Y-6622402D02*
G01X7493406Y-6337402D01*
G01X7163405Y-6337402D02*
G01X7264781Y-6337402D01*
G01X7391011Y-6337402D02*
G01X7493406Y-6337402D01*
G01X7228406Y-6667403D02*
G01X7264781Y-6667403D01*
G01X7391011Y-6667403D02*
G01X7428405Y-6667403D01*
G01X7228406Y-6667403D02*
G01X7208406Y-6667403D01*
G01X7208406Y-6667403D02*
G01X7163405Y-6622402D01*
G01X7428405Y-6667403D02*
G01X7448405Y-6667403D01*
G01X7448405Y-6667403D02*
G01X7493406Y-6622402D01*
G01X7264405Y-6384402D02*
G03X7266361Y-6617480I65000J-116002D01*
G01X7391405Y-6618402D02*
G03X7396241Y-6385075I-61997J117999D01*
G36*
G01X7195406Y-6501402D02*
G01X7462406Y-6502403D01*
G01X7456406Y-6477401D01*
G01X7446406Y-6450404D01*
G01X7433407Y-6432403D01*
G01X7426406Y-6417401D01*
G01X7412406Y-6404402D01*
G01X7399406Y-6392403D01*
G01X7389406Y-6384402D01*
G01X7389406Y-6483403D01*
G01X7264405Y-6482403D01*
G01X7264405Y-6393404D01*
G01X7242406Y-6398402D01*
G01X7228406Y-6409403D01*
G01X7213407Y-6426403D01*
G01X7206407Y-6444402D01*
G01X7200405Y-6464402D01*
G01X7194405Y-6485402D01*
G01X7192406Y-6501402D01*
G01X7195406Y-6501402D01*
G37*
G01X7932257Y-6492319D02*
G01X7932257Y-6572316D01*
G01X7932303Y-6436274D02*
G01X7932303Y-6356276D01*
G01X7790289Y-6492319D02*
G01X7790289Y-6572316D01*
G01X7790337Y-6436274D02*
G01X7790337Y-6356276D01*
G01X7901275Y-6603291D02*
G01X7821270Y-6603291D01*
G01X7821323Y-6325298D02*
G01X7901325Y-6325298D01*
G01X7790337Y-6356281D02*
G02X7821323Y-6325298I30983J0D01*
G01X7901320Y-6325298D02*
G02X7932303Y-6356281I0J-30983D01*
G01X7932257Y-6572311D02*
G02X7901275Y-6603291I-30983J3D01*
G01X7821277Y-6603291D02*
G02X7790289Y-6572311I-5J30983D01*
G01X8143319Y-6799743D02*
G01X8223316Y-6799743D01*
G01X8087274Y-6799697D02*
G01X8007276Y-6799697D01*
G01X8143319Y-6941711D02*
G01X8223316Y-6941711D01*
G01X8087274Y-6941663D02*
G01X8007276Y-6941663D01*
G01X8254291Y-6830725D02*
G01X8254291Y-6910730D01*
G01X7976299Y-6910677D02*
G01X7976299Y-6830675D01*
G01X8007281Y-6941663D02*
G02X7976299Y-6910677I0J30983D01*
G01X7976299Y-6830680D02*
G02X8007281Y-6799697I30983J0D01*
G01X8223311Y-6799743D02*
G02X8254291Y-6830725I-3J-30983D01*
G01X8254291Y-6910723D02*
G02X8223311Y-6941711I-30983J-5D01*
G54D10*
G01X8546140Y-6017136D02*
G01X8546140Y-6053981D01*
G01X8624260Y-6053981D02*
G01X8624260Y-6017136D01*
G01X8609020Y-6001896D02*
G01X8561380Y-6001896D01*
G01X8546140Y-6124064D02*
G01X8546140Y-6087219D01*
G01X8624260Y-6087219D02*
G01X8624260Y-6124064D01*
G01X8609020Y-6139304D02*
G01X8561380Y-6139304D01*
G01X8624260Y-6017136D02*
G03X8609020Y-6001896I-15240J0D01*
G01X8561380Y-6001896D02*
G03X8546140Y-6017136I0J-15240D01*
G01X8624260Y-6124064D02*
G02X8609020Y-6139304I-15240J0D01*
G01X8561380Y-6139304D02*
G02X8546140Y-6124064I0J15240D01*
G01X8431858Y-6637884D02*
G01X8431858Y-6558991D01*
G01X8431858Y-6558991D02*
G01X8332142Y-6558991D01*
G01X8332142Y-6558991D02*
G01X8332142Y-6637884D01*
G01X8431858Y-6697116D02*
G01X8431858Y-6760771D01*
G01X8431858Y-6760771D02*
G01X8416620Y-6776009D01*
G01X8416620Y-6776009D02*
G01X8347380Y-6776009D01*
G01X8347380Y-6776009D02*
G01X8332142Y-6760771D01*
G01X8332142Y-6760771D02*
G01X8332142Y-6697116D01*
G36*
G01X8416620Y-6791249D02*
G01X8347380Y-6791249D01*
G01X8347380Y-6806489D01*
G01X8416620Y-6806489D01*
G01X8416620Y-6791249D01*
G37*
G01X8582640Y-6760921D02*
G01X8582640Y-6856809D01*
G01X8582640Y-6856809D02*
G01X8714760Y-6856809D01*
G01X8714760Y-6856809D02*
G01X8714760Y-6760921D01*
G01X8582640Y-6675679D02*
G01X8582640Y-6579791D01*
G01X8582640Y-6579791D02*
G01X8714760Y-6579791D01*
G01X8714760Y-6579791D02*
G01X8714760Y-6675679D01*
G54D12*
G01X6304150Y-6779250D02*
G01X6304150Y-6428750D01*
G01X6304150Y-6428750D02*
G01X6954650Y-6428750D01*
G01X6954650Y-6428750D02*
G01X6954650Y-6779250D01*
G01X6954650Y-6779250D02*
G01X6304150Y-6779250D01*
G01X6304150Y-6779250D02*
G01X6304150Y-6428750D01*
G01X6304150Y-6428750D02*
G01X6954650Y-6428750D01*
G01X6954650Y-6428750D02*
G01X6954650Y-6779250D01*
G01X6954650Y-6779250D02*
G01X6304150Y-6779250D01*
G54D13*
G01X5225200Y-5914400D02*
G01X4325200Y-5914400D01*
G01X4325200Y-5914400D02*
G01X4325200Y-7344400D01*
G01X5225200Y-7344400D02*
G01X4325200Y-7344400D01*
G01X5225200Y-5914400D02*
G01X5225200Y-7344400D01*
G54D14*
G01X5020200Y-7344400D02*
G01X5225200Y-7344400D01*
G01X5225200Y-5914400D02*
G01X4325200Y-5914400D01*
G01X4325200Y-5914400D02*
G01X4325200Y-6769400D01*
G01X4530200Y-7344400D02*
G01X4325200Y-7344400D01*
G01X4325200Y-7344400D02*
G01X4325200Y-7219400D01*
G01X5225200Y-5914400D02*
G01X5225200Y-7344400D01*

G04 Circle Start*
G01X6837600Y-7531100D02*
G03X6857600Y-7531100I10000J0D01*
G03X6837600Y-7531100I-10000J0D01*
G01X6837600Y-7531100D02*
G03X6857600Y-7531100I10000J0D01*
G03X6837600Y-7531100I-10000J0D01*
G01X6087500Y-696100D02*
G03X6107500Y-696100I10000J0D01*
G03X6087500Y-696100I-10000J0D01*
G01X6087500Y-696100D02*
G03X6107500Y-696100I10000J0D01*
G03X6087500Y-696100I-10000J0D01*
G01X5363000Y-2068000D02*
G03X5383000Y-2068000I10000J0D01*
G03X5363000Y-2068000I-10000J0D01*
G01X5363000Y-2068000D02*
G03X5383000Y-2068000I10000J0D01*
G03X5363000Y-2068000I-10000J0D01*
G54D16*
G01X8328330Y-6667500D02*
G03X8335950Y-6667500I3810J0D01*
G03X8328330Y-6667500I-3810J0D01*
G01X8428050Y-6667500D02*
G03X8435670Y-6667500I3810J0D01*
G03X8428050Y-6667500I-3810J0D01*
G54D14*
G01X6220400Y-6934000D02*
G03X6240400Y-6934000I10000J0D01*
G03X6220400Y-6934000I-10000J0D01*
G01X6220400Y-6934000D02*
G03X6240400Y-6934000I10000J0D01*
G03X6220400Y-6934000I-10000J0D01*
G01X4765200Y-7494400D02*
G03X4785200Y-7494400I10000J0D01*
G03X4765200Y-7494400I-10000J0D01*
G01X4765200Y-7494400D02*
G03X4785200Y-7494400I10000J0D01*
G03X4765200Y-7494400I-10000J0D01*
G04 Circle End*

M02*

