G04 Layer: TopLayer*
G04 EasyEDA Pro v2.2.47.7, 2026-05-29 18:17:45*
G04 Gerber Generator version 0.3*
G04 Scale: 100 percent, Rotated: No, Reflected: No*
G04 Dimensions in millimeters*
G04 Leading zeros omitted, absolute positions, 4 integers and 5 decimals*
G04 Generated by one-click*
G04 Object Configs: Pad,Via,Track,Text,Image,Dimension,BoardOutline,BoardCutout,CopperFilled,SolidRegion,FPCStiffener,Line,PlaneZone,ComponentProperty,ComponentSilkscreen,TearDrop*
G04 Layer Configs: 1,2,3,4,5,6,7,8,9,10,11,13,14,71,72,73,74,56*
G04 Copper Areas: 0*
%FSLAX45Y45*%
%MOMM*%
%AMRoundRect*1,1,$1,$2,$3*1,1,$1,$4,$5*1,1,$1,0-$2,0-$3*1,1,$1,0-$4,0-$5*20,1,$1,$2,$3,$4,$5,0*20,1,$1,$4,$5,0-$2,0-$3,0*20,1,$1,0-$2,0-$3,0-$4,0-$5,0*20,1,$1,0-$4,0-$5,$2,$3,0*4,1,4,$2,$3,$4,$5,0-$2,0-$3,0-$4,0-$5,$2,$3,0*%
%ADD10C,1.524*%
%ADD11R,1.6X1.6*%
%ADD12C,1.6*%
%ADD13C,1.408*%
%ADD14R,1.408X1.408*%
%ADD15R,1.37X1.37*%
%ADD16C,1.37*%
%ADD17R,2.0031X2.0*%
%ADD18R,2.0X2.0*%
%ADD19C,2.0*%
%ADD20R,1.5748X1.6*%
%ADD21R,0.8X2.0*%
%ADD22R,0.9X0.8*%
%ADD23R,0.8X0.9*%
%ADD24R,0.324X0.36843*%
%ADD25R,0.54X0.63647*%
%ADD26R,0.86401X0.80648*%
%ADD27RoundRect,0.1395X-0.39525X0.58525X0.39525X0.58525*%
%ADD28RoundRect,0.1965X-1.52175X0.55675X1.52175X0.55675*%
%ADD29O,4.4X2.2*%
%ADD30O,2.0X4.0*%
%ADD31O,4.0X2.0*%
%ADD32C,0.61*%
%ADD33C,0.254*%
G75*


G04 Pad Start*
G54D10*
G01X9702800Y-7962900D03*
G01X3848100Y-7975600D03*
G01X3873500Y495300D03*
G54D11*
G01X8686800Y-1981200D03*
G54D12*
G01X8686800Y-2235200D03*
G01X8686800Y-2489200D03*
G01X8686800Y-2743200D03*
G01X8686800Y-2997200D03*
G01X8686800Y-3251200D03*
G01X8686800Y-3505200D03*
G01X8686800Y-3759200D03*
G01X8686800Y-4013200D03*
G01X8686800Y-4267200D03*
G01X8686800Y-4521200D03*
G01X8686800Y-4775200D03*
G01X8686800Y-5029200D03*
G01X8686800Y-5283200D03*
G01X8686800Y-5537200D03*
G54D11*
G01X8420100Y-5537200D03*
G54D12*
G01X8420100Y-5283200D03*
G01X8420100Y-5029200D03*
G01X8420100Y-4775200D03*
G01X8420100Y-4521200D03*
G01X8420100Y-4267200D03*
G01X8420100Y-4013200D03*
G01X8420100Y-3759200D03*
G01X8420100Y-3505200D03*
G01X8420100Y-3251200D03*
G01X8420100Y-2997200D03*
G01X8420100Y-2743200D03*
G01X8420100Y-2489200D03*
G01X8420100Y-2235200D03*
G01X8420100Y-1981200D03*
G54D11*
G01X4724400Y-5600700D03*
G54D12*
G01X4724400Y-5346700D03*
G01X4724400Y-5092700D03*
G01X4724400Y-4838700D03*
G01X4724400Y-4584700D03*
G01X4724400Y-4330700D03*
G01X4724400Y-4076700D03*
G01X4724400Y-3822700D03*
G01X4724400Y-3568700D03*
G01X4724400Y-3314700D03*
G01X4724400Y-3060700D03*
G01X4724400Y-2806700D03*
G01X4724400Y-2552700D03*
G01X4724400Y-2298700D03*
G01X4724400Y-2044700D03*
G54D11*
G01X5080000Y-2044700D03*
G54D12*
G01X5080000Y-2298700D03*
G01X5080000Y-2552700D03*
G01X5080000Y-2806700D03*
G01X5080000Y-3060700D03*
G01X5080000Y-3314700D03*
G01X5080000Y-3568700D03*
G01X5080000Y-3822700D03*
G01X5080000Y-4076700D03*
G01X5080000Y-4330700D03*
G01X5080000Y-4584700D03*
G01X5080000Y-4838700D03*
G01X5080000Y-5092700D03*
G01X5080000Y-5346700D03*
G01X5080000Y-5600700D03*
G54D13*
G01X6197600Y-7531100D03*
G54D14*
G01X6447600Y-7531100D03*
G54D13*
G01X5947600Y-7531100D03*
G54D15*
G01X5905500Y-696100D03*
G54D16*
G01X5905500Y-950100D03*
G01X5651500Y-696100D03*
G01X5651500Y-950100D03*
G54D18*
G01X5588000Y-2068000D03*
G54D19*
G01X5588000Y-2322000D03*
G01X5588000Y-2576000D03*
G01X5588000Y-2830000D03*
G01X5588000Y-3084000D03*
G01X5588000Y-3338000D03*
G01X5588000Y-3592000D03*
G01X5588000Y-3846000D03*
G01X5588000Y-4100000D03*
G01X5588000Y-4354000D03*
G01X5588000Y-4608000D03*
G01X5588000Y-4862000D03*
G01X5588000Y-5116000D03*
G01X5588000Y-5370000D03*
G01X5588000Y-5624000D03*
G01X8128000Y-2068000D03*
G01X8128000Y-2322000D03*
G01X8128000Y-2576000D03*
G01X8128000Y-2830000D03*
G01X8128000Y-3084000D03*
G01X8128000Y-3338000D03*
G01X8128000Y-3592000D03*
G01X8128000Y-3846000D03*
G01X8128000Y-4100000D03*
G01X8128000Y-4354000D03*
G01X8128000Y-4608000D03*
G01X8128000Y-4862000D03*
G01X8128000Y-5116000D03*
G01X8128000Y-5370000D03*
G01X8128000Y-5624000D03*
G54D12*
G01X5562600Y-5600700D03*
G01X5562600Y-5346700D03*
G01X5562600Y-5092700D03*
G01X5562600Y-4838700D03*
G01X5562600Y-4584700D03*
G01X5562600Y-4330700D03*
G01X5562600Y-4076700D03*
G01X5562600Y-3822700D03*
G01X5562600Y-3568700D03*
G01X5562600Y-3314700D03*
G01X5562600Y-3060700D03*
G01X5562600Y-2806700D03*
G01X5562600Y-2552700D03*
G01X5562600Y-2298700D03*
G54D20*
G01X5562600Y-2044700D03*
G54D12*
G01X8128000Y-5613400D03*
G01X8128000Y-5359400D03*
G01X8128000Y-5105400D03*
G01X8128000Y-4851400D03*
G01X8128000Y-4597400D03*
G01X8128000Y-4343400D03*
G01X8128000Y-4089400D03*
G01X8128000Y-3835400D03*
G01X8128000Y-3581400D03*
G01X8128000Y-3327400D03*
G01X8128000Y-3073400D03*
G01X8128000Y-2819400D03*
G01X8128000Y-2565400D03*
G01X8128000Y-2311400D03*
G54D20*
G01X8128000Y-2057400D03*
G54D21*
G01X7327900Y-6639400D03*
G01X7327900Y-6365400D03*
G54D22*
G01X7861300Y-6394298D03*
G01X7861300Y-6534302D03*
G54D23*
G01X8045298Y-6870700D03*
G01X8185302Y-6870700D03*
G54D24*
G01X8585200Y-6043168D03*
G01X8585200Y-6098032D03*
G54D25*
G01X8382000Y-6721323D03*
G01X8382000Y-6613677D03*
G54D26*
G01X8648700Y-6793636D03*
G01X8648700Y-6642964D03*
G54D27*
G01X6400400Y-6938500D03*
G01X6629400Y-6938500D03*
G01X6858400Y-6938500D03*
G54D28*
G01X6629400Y-6269500D03*
G54D29*
G01X4775200Y-7284400D03*
G54D30*
G01X4295200Y-6994400D03*
G54D31*
G01X4775200Y-6654400D03*
G04 Pad End*

G04 Via Start*
G54D32*
G01X4995700Y-6654400D03*
G01X4972100Y-2298700D03*
G01X5497561Y-2412439D03*
G01X8140700Y-1917700D03*
G04 Via End*

G04 Track Start*
G54D33*
G01X8648700Y-6642964D02*
G01X8495436Y-6642964D01*
G01X8407400Y-6731000D01*
G01X8648700Y-6161532D02*
G01X8585200Y-6098032D01*
G01X8648700Y-6793636D02*
G01X8648700Y-6765944D01*
G01X8719800Y-6694844D01*
G01X8719800Y-6591083D01*
G01X8648700Y-6519983D01*
G01X8648700Y-6161532D01*
G01X8045298Y-6870700D02*
G01X8060846Y-6870700D01*
G01X8133746Y-6797800D01*
G01X8197877Y-6797800D01*
G01X8382000Y-6613677D01*
G01X8648700Y-6793636D02*
G01X8571636Y-6870700D01*
G01X8185302Y-6870700D01*
G01X8045298Y-6870700D02*
G01X8045298Y-6578295D01*
G01X7861300Y-6394298D01*
G01X7993741Y-6943600D02*
G01X7988641Y-6938500D01*
G01X6858400Y-6938500D01*
G01X8185302Y-6870700D02*
G01X8112402Y-6943600D01*
G01X7993741Y-6943600D01*
G01X6858400Y-6938500D02*
G01X6858400Y-7120300D01*
G01X6447600Y-7531100D01*
G01X6629400Y-6938500D02*
G01X6928500Y-6639400D01*
G01X7327900Y-6639400D01*
G01X7756202Y-6639400D01*
G01X7861300Y-6534302D01*
G01X7327900Y-6365400D02*
G01X7832402Y-6365400D01*
G01X7861300Y-6394298D01*
G01X8420100Y-5975502D02*
G01X8420100Y-5537200D01*
G01X7861300Y-6534302D02*
G01X7861300Y-6518754D01*
G01X7260000Y-6476956D02*
G01X7009314Y-6476956D01*
G01X6454371Y-7031900D02*
G01X6346429Y-7031900D01*
G01X6326000Y-7011471D01*
G01X6326000Y-6865529D01*
G01X7861300Y-6518754D02*
G01X7835846Y-6493300D01*
G01X7276344Y-6493300D01*
G01X7260000Y-6476956D01*
G01X6326000Y-6865529D02*
G01X6954029Y-6237500D01*
G01X8158102Y-6237500D01*
G01X8420100Y-5975502D01*
G01X8382000Y-6613677D02*
G01X8445500Y-6550177D01*
G01X8557443Y-6051711D02*
G01X8576657Y-6051711D01*
G01X8585200Y-6043168D01*
G01X8445500Y-6163654D02*
G01X8557443Y-6051711D01*
G01X8445500Y-6550177D02*
G01X8445500Y-6163654D01*
G01X8420100Y-5337744D02*
G01X8528000Y-5445644D01*
G01X8528000Y-5985968D01*
G01X8585200Y-6043168D01*
G01X8420100Y-1981200D02*
G01X8420100Y-2235200D01*
G01X8420100Y-2489200D01*
G01X8420100Y-2743200D01*
G01X8420100Y-2997200D01*
G01X8420100Y-3251200D01*
G01X8420100Y-3505200D01*
G01X8420100Y-3759200D01*
G01X8420100Y-4013200D01*
G01X8420100Y-4267200D01*
G01X8420100Y-4521200D01*
G01X8420100Y-4775200D01*
G01X8420100Y-5029200D01*
G01X8420100Y-5337744D01*
G01X8420100Y-5537200D02*
G01X8420100Y-5435794D01*
G01X8312200Y-5327894D01*
G01X8312200Y-5238506D01*
G01X8375406Y-5175300D01*
G01X8375406Y-5137100D01*
G01X8312200Y-5073894D01*
G01X8312200Y-4984506D01*
G01X8375406Y-4921300D01*
G01X8375406Y-4883100D01*
G01X8312200Y-4819894D01*
G01X8312200Y-4730506D01*
G01X8375406Y-4667300D01*
G01X8375406Y-4629100D01*
G01X8312200Y-4565894D01*
G01X8312200Y-4476506D01*
G01X8375406Y-4413300D01*
G01X8375406Y-4375100D01*
G01X8312200Y-4311894D01*
G01X8312200Y-4222506D01*
G01X8375406Y-4159300D01*
G01X8375406Y-4121100D01*
G01X8312200Y-4057894D01*
G01X8312200Y-3968506D01*
G01X8375406Y-3905300D01*
G01X8375406Y-3867100D01*
G01X8312200Y-3803894D01*
G01X8312200Y-3714506D01*
G01X8375406Y-3651300D01*
G01X8375406Y-3613100D01*
G01X8312200Y-3549894D01*
G01X8312200Y-3460506D01*
G01X8375406Y-3397300D01*
G01X8375406Y-3359100D01*
G01X8312200Y-3295894D01*
G01X8312200Y-3206506D01*
G01X8375406Y-3143300D01*
G01X8375406Y-3105100D01*
G01X8312200Y-3041894D01*
G01X8312200Y-2952506D01*
G01X8375406Y-2889300D01*
G01X8375406Y-2851100D01*
G01X8312200Y-2787894D01*
G01X8312200Y-2698506D01*
G01X8375406Y-2635300D01*
G01X8375406Y-2597100D01*
G01X8312200Y-2533894D01*
G01X8312200Y-2444506D01*
G01X8375406Y-2381300D01*
G01X8375406Y-2343100D01*
G01X8312200Y-2279894D01*
G01X8312200Y-2190506D01*
G01X8375406Y-2127300D01*
G01X8375406Y-2089100D01*
G01X8312200Y-2025894D01*
G01X8312200Y-1936506D01*
G01X8464794Y-2089100D02*
G01X8464794Y-2127300D01*
G01X8528000Y-2190506D01*
G01X8528000Y-2279894D01*
G01X8464794Y-2343100D01*
G01X8464794Y-2381300D01*
G01X8528000Y-2444506D01*
G01X8528000Y-2533894D01*
G01X8464794Y-2597100D01*
G01X8464794Y-2635300D01*
G01X8528000Y-2698506D01*
G01X8528000Y-2787894D01*
G01X8464794Y-2851100D01*
G01X8464794Y-2889300D01*
G01X8528000Y-2952506D01*
G01X8528000Y-3041894D01*
G01X8464794Y-3105100D01*
G01X8464794Y-3143300D01*
G01X8528000Y-3206506D01*
G01X8528000Y-3295894D01*
G01X8464794Y-3359100D01*
G01X8464794Y-3397300D01*
G01X8528000Y-3460506D01*
G01X8528000Y-3549894D01*
G01X8464794Y-3613100D01*
G01X8464794Y-3651300D01*
G01X8528000Y-3714506D01*
G01X8528000Y-3803894D01*
G01X8464794Y-3867100D01*
G01X8464794Y-3905300D01*
G01X8528000Y-3968506D01*
G01X8528000Y-4057894D01*
G01X8464794Y-4121100D01*
G01X8464794Y-4159300D01*
G01X8528000Y-4222506D01*
G01X8528000Y-4311894D01*
G01X8464794Y-4375100D01*
G01X8464794Y-4413300D01*
G01X8528000Y-4476506D01*
G01X8528000Y-4565894D01*
G01X8464794Y-4629100D01*
G01X8464794Y-4667300D01*
G01X8528000Y-4730506D01*
G01X8528000Y-4819894D01*
G01X8464794Y-4883100D01*
G01X8464794Y-4921300D01*
G01X8528000Y-4984506D01*
G01X8528000Y-5073894D01*
G01X8464794Y-5137100D01*
G01X8464794Y-5175300D01*
G01X8528000Y-5238506D01*
G01X8528000Y-5395298D01*
G01X8563600Y-5430898D01*
G01X8563600Y-5460389D01*
G01X8640410Y-5537200D01*
G01X8686800Y-5537200D01*
G01X8686800Y-5283200D02*
G01X8686800Y-5029200D01*
G01X8686800Y-4775200D01*
G01X8686800Y-4521200D01*
G01X8686800Y-4267200D01*
G01X8686800Y-4013200D01*
G01X8686800Y-3759200D01*
G01X8686800Y-3505200D01*
G01X8686800Y-3251200D01*
G01X8686800Y-2997200D01*
G01X8686800Y-2743200D01*
G01X8686800Y-2489200D01*
G01X8686800Y-2235200D01*
G01X8686800Y-1981200D01*
G01X8686800Y-5537200D02*
G01X8686800Y-5283200D01*
G01X8528000Y-1936506D02*
G01X8528000Y-2025894D01*
G01X8464794Y-2089100D01*
G01X6197600Y-7531100D02*
G01X5950900Y-7284400D01*
G01X4997900Y-7284400D01*
G01X6400400Y-6938500D02*
G01X6473371Y-6865529D01*
G01X6555000Y-6865529D01*
G01X6575429Y-6845100D01*
G01X6590825Y-6845100D01*
G01X6994568Y-6441356D01*
G01X7934200Y-6482746D02*
G01X7934200Y-6585859D01*
G01X7917856Y-6602202D01*
G01X7843746Y-6602202D01*
G01X7770948Y-6675000D01*
G01X7471756Y-6675000D01*
G01X7379456Y-6767300D01*
G01X6703800Y-6914446D02*
G01X6703800Y-7011471D01*
G01X7892811Y-6441356D02*
G01X7934200Y-6482746D01*
G01X7379456Y-6767300D02*
G01X6850946Y-6767300D01*
G01X6703800Y-6914446D01*
G01X6703800Y-7011471D02*
G01X6647771Y-7067500D01*
G01X6331683Y-7067500D01*
G01X5918583Y-6654400D01*
G01X4977900Y-6654400D01*
G01X6994568Y-6441356D02*
G01X7892811Y-6441356D01*
G01X4972100Y-2298700D02*
G01X4972100Y-2343394D01*
G01X5041145Y-2412439D01*
G01X5497561Y-2412439D01*
G01X8464794Y-1873300D02*
G01X8509194Y-1917700D01*
G01X8375406Y-1873300D02*
G01X8464794Y-1873300D01*
G01X8331006Y-1917700D02*
G01X8375406Y-1873300D01*
G01X8140700Y-1917700D02*
G01X8331006Y-1917700D01*
G01X8636000Y-1917700D02*
G01X8674100Y-1879600D01*
G01X8509194Y-1917700D02*
G01X8636000Y-1917700D01*
G01X8509194Y-1917700D02*
G01X8528000Y-1936506D01*
G01X8312200Y-1936506D02*
G01X8331006Y-1917700D01*
G01X7009314Y-6476956D02*
G01X6454371Y-7031900D01*
G04 Track End*

M02*

