G04 Layer: DrillDrawingLayer*
G04 EasyEDA Pro v2.2.47.7, 2026-05-29 18:17:45*
G04 Gerber Generator version 0.3*
G04 Scale: 100 percent, Rotated: No, Reflected: No*
G04 Dimensions in millimeters*
G04 Leading zeros omitted, absolute positions, 4 integers and 5 decimals*
G04 Generated by one-click*
G04 Object Configs: Pad,Via,Track,Text,Image,Dimension,BoardOutline,BoardCutout,CopperFilled,SolidRegion,FPCStiffener,Line,PlaneZone,ComponentProperty,ComponentSilkscreen,TearDrop*
G04 Layer Configs: 1,2,3,4,5,6,7,8,9,10,11,13,14,71,72,73,74,56*
G04 Copper Areas: 0*
%FSLAX45Y45*%
%MOMM*%
%AMIconRect*4,1,4,0.28,-0.28,-0.28,-0.28,-0.28,0.28,0.28,0.28,0.28,-0.28,0*4,0,4,0.233333,-0.233333,0.233333,0.233333,-0.233333,0.233333,-0.233333,-0.233333,0.233333,-0.233333,0*%
%AMIconTriangle*4,1,3,-0.339593,0.240473,0.339593,0.240473,0,-0.37884,-0.339593,0.240473,0*4,0,3,-0.265673,0.19404,0,-0.27342,0.266233,0.19404,-0.265673,0.19404,0*%
%AMIconStar6*4,1,12,0.12068,0.20888,0.298527,0.172713,0.241313,0,0.298527,-0.17206,0.12068,-0.208227,0,-0.344073,-0.120073,-0.208227,-0.298573,-0.17206,-0.240707,0,-0.298573,0.17206,-0.120073,0.20888,0,0.344073,0.12068,0.20888,0*4,0,12,-0.000467,0.273467,-0.090067,0.171733,-0.237533,0.136733,-0.193667,-0.007467,-0.237533,-0.1372,-0.090067,-0.171733,-0.000467,-0.273933,0.090067,-0.171733,0.237533,-0.1372,0.194133,0.007,0.237533,0.1372,0.090067,0.171267,-0.000467,0.273467,0*%
%AMIconStar4*4,1,8,-0.311733,0.311733,0,0.202533,0.311733,0.311733,0.202533,0,0.311733,-0.311733,0,-0.202533,-0.304407,-0.311733,-0.202533,0,-0.311733,0.311733,0*4,0,8,0.233333,-0.233333,0.1512,0,0.233333,0.233333,0,0.1512,-0.233333,0.233333,-0.1512,0,-0.233333,-0.233333,0,-0.1512,0.233333,-0.233333,0*%
%AMIconPlus*4,1,12,0.1736,-0.28,-0.1736,-0.28,-0.1736,-0.1736,-0.28,-0.1736,-0.28,0.1736,-0.1736,0.1736,-0.1736,0.28,0.1736,0.28,0.1736,0.1736,0.28,0.1736,0.28,-0.1736,0.1736,-0.1736,0.1736,-0.28,0*4,0,12,0.126933,-0.233333,0.126933,-0.126933,0.233333,-0.126933,0.233333,0.126933,0.126933,0.126933,0.126933,0.233333,-0.126933,0.233333,-0.126933,0.126933,-0.233333,0.126933,-0.233333,-0.126933,-0.126933,-0.126933,-0.126933,-0.233333,0.126933,-0.233333,0*%
%ADD10IconRect*%
%ADD11C,0.616X0.522667*%
%ADD12IconTriangle*%
%ADD13IconStar6*%
%ADD14IconStar4*%
%ADD15IconPlus*%
G75*


G04 Drill Drawing Start*
G54D10*
G01X3848100Y-7975600D03*
G01X3873500Y495300D03*
G01X9702800Y-7962900D03*
G54D11*
G01X5947600Y-7531100D03*
G01X6197600Y-7531100D03*
G01X6447600Y-7531100D03*
G54D12*
G01X4972100Y-2298700D03*
G01X4995700Y-6654400D03*
G01X5497561Y-2412439D03*
G01X8140700Y-1917700D03*
G54D13*
G01X4295200Y-6994400D03*
G01X4775200Y-7284400D03*
G01X4775200Y-6654400D03*
G01X5562600Y-5600700D03*
G01X5562600Y-5346700D03*
G01X5562600Y-5092700D03*
G01X5562600Y-4838700D03*
G01X5562600Y-4584700D03*
G01X5562600Y-4330700D03*
G01X5562600Y-4076700D03*
G01X5562600Y-3822700D03*
G01X5562600Y-3568700D03*
G01X5562600Y-3314700D03*
G01X5562600Y-3060700D03*
G01X5562600Y-2806700D03*
G01X5562600Y-2552700D03*
G01X5562600Y-2298700D03*
G01X5562600Y-2044700D03*
G01X8128000Y-5613400D03*
G01X8128000Y-5359400D03*
G01X8128000Y-5105400D03*
G01X8128000Y-4851400D03*
G01X8128000Y-4597400D03*
G01X8128000Y-4343400D03*
G01X8128000Y-4089400D03*
G01X8128000Y-3835400D03*
G01X8128000Y-3581400D03*
G01X8128000Y-3327400D03*
G01X8128000Y-3073400D03*
G01X8128000Y-2819400D03*
G01X8128000Y-2565400D03*
G01X8128000Y-2311400D03*
G01X8128000Y-2057400D03*
G54D14*
G01X5588000Y-5624000D03*
G01X5588000Y-5370000D03*
G01X5588000Y-5116000D03*
G01X5588000Y-4862000D03*
G01X5588000Y-4608000D03*
G01X5588000Y-4354000D03*
G01X5588000Y-4100000D03*
G01X5588000Y-3846000D03*
G01X5588000Y-3592000D03*
G01X5588000Y-3338000D03*
G01X5588000Y-3084000D03*
G01X5588000Y-2830000D03*
G01X5588000Y-2576000D03*
G01X5588000Y-2322000D03*
G01X5588000Y-2068000D03*
G01X5651500Y-950100D03*
G01X5651500Y-696100D03*
G01X5905500Y-950100D03*
G01X5905500Y-696100D03*
G01X8128000Y-5624000D03*
G01X8128000Y-5370000D03*
G01X8128000Y-5116000D03*
G01X8128000Y-4862000D03*
G01X8128000Y-4608000D03*
G01X8128000Y-4354000D03*
G01X8128000Y-4100000D03*
G01X8128000Y-3846000D03*
G01X8128000Y-3592000D03*
G01X8128000Y-3338000D03*
G01X8128000Y-3084000D03*
G01X8128000Y-2830000D03*
G01X8128000Y-2576000D03*
G01X8128000Y-2322000D03*
G01X8128000Y-2068000D03*
G54D15*
G01X4724400Y-5600700D03*
G01X4724400Y-5346700D03*
G01X4724400Y-5092700D03*
G01X4724400Y-4838700D03*
G01X4724400Y-4584700D03*
G01X4724400Y-4330700D03*
G01X4724400Y-4076700D03*
G01X4724400Y-3822700D03*
G01X4724400Y-3568700D03*
G01X4724400Y-3314700D03*
G01X4724400Y-3060700D03*
G01X4724400Y-2806700D03*
G01X4724400Y-2552700D03*
G01X4724400Y-2298700D03*
G01X4724400Y-2044700D03*
G01X5080000Y-5600700D03*
G01X5080000Y-5346700D03*
G01X5080000Y-5092700D03*
G01X5080000Y-4838700D03*
G01X5080000Y-4584700D03*
G01X5080000Y-4330700D03*
G01X5080000Y-4076700D03*
G01X5080000Y-3822700D03*
G01X5080000Y-3568700D03*
G01X5080000Y-3314700D03*
G01X5080000Y-3060700D03*
G01X5080000Y-2806700D03*
G01X5080000Y-2552700D03*
G01X5080000Y-2298700D03*
G01X5080000Y-2044700D03*
G01X8420100Y-5537200D03*
G01X8420100Y-5283200D03*
G01X8420100Y-5029200D03*
G01X8420100Y-4775200D03*
G01X8420100Y-4521200D03*
G01X8420100Y-4267200D03*
G01X8420100Y-4013200D03*
G01X8420100Y-3759200D03*
G01X8420100Y-3505200D03*
G01X8420100Y-3251200D03*
G01X8420100Y-2997200D03*
G01X8420100Y-2743200D03*
G01X8420100Y-2489200D03*
G01X8420100Y-2235200D03*
G01X8420100Y-1981200D03*
G01X8686800Y-5537200D03*
G01X8686800Y-5283200D03*
G01X8686800Y-5029200D03*
G01X8686800Y-4775200D03*
G01X8686800Y-4521200D03*
G01X8686800Y-4267200D03*
G01X8686800Y-4013200D03*
G01X8686800Y-3759200D03*
G01X8686800Y-3505200D03*
G01X8686800Y-3251200D03*
G01X8686800Y-2997200D03*
G01X8686800Y-2743200D03*
G01X8686800Y-2489200D03*
G01X8686800Y-2235200D03*
G01X8686800Y-1981200D03*
G04 Drill Drawing End*

M02*

